<svg width="38" height="33" viewBox="0 0 38 33" fill="none" xmlns="http://www.w3.org/2000/svg">
<path d="M3.14028 19.3617L15.0615 30.235C15.5563 30.6861 16.2094 30.9375 16.8889 30.9375C17.5684 30.9375 18.2215 30.6861 18.7163 30.235L18.8878 30.0803C17.6278 28.2692 16.8889 26.0777 16.8889 23.7188C16.8889 17.4539 22.0875 12.375 28.5 12.375C30.367 12.375 32.1285 12.8068 33.692 13.5674C33.7514 13.1484 33.7778 12.7295 33.7778 12.3041V11.9303C33.7778 7.42501 30.4462 3.5836 25.9007 2.84239C22.8924 2.35255 19.8313 3.3129 17.6806 5.41407L16.8889 6.18751L16.0972 5.41407C13.9465 3.3129 10.8854 2.35255 7.87708 2.84239C3.3316 3.5836 0 7.42501 0 11.9303V12.3041C0 14.9789 1.13472 17.5377 3.14028 19.3617ZM28.5 33C33.7448 33 38 28.8428 38 23.7188C38 18.5947 33.7448 14.4375 28.5 14.4375C23.2552 14.4375 19 18.5947 19 23.7188C19 28.8428 23.2552 33 28.5 33ZM29.5556 19.5938V22.6875H32.7222C33.3028 22.6875 33.7778 23.1516 33.7778 23.7188C33.7778 24.2859 33.3028 24.75 32.7222 24.75H29.5556V27.8438C29.5556 28.4109 29.0806 28.875 28.5 28.875C27.9194 28.875 27.4444 28.4109 27.4444 27.8438V24.75H24.2778C23.6972 24.75 23.2222 24.2859 23.2222 23.7188C23.2222 23.1516 23.6972 22.6875 24.2778 22.6875H27.4444V19.5938C27.4444 19.0266 27.9194 18.5625 28.5 18.5625C29.0806 18.5625 29.5556 19.0266 29.5556 19.5938Z" fill="white"/>
</svg>
