<svg width="99" height="95" viewBox="0 0 99 95" fill="none" xmlns="http://www.w3.org/2000/svg">
<g clip-path="url(#clip0_55_553)">
<path opacity="0.4" d="M85.3649 81.1809C103.576 62.7584 103.576 32.8896 85.3649 14.4671C67.1535 -3.9554 37.6269 -3.95541 19.4155 14.4671C1.20407 32.8896 1.20407 62.7584 19.4155 81.1809C37.6269 99.6034 67.1535 99.6034 85.3649 81.1809Z" fill="#6D8199"/>
<path d="M51.4001 92.2634C76.586 92.2634 97.0032 71.6095 97.0032 46.1317C97.0032 20.6539 76.586 0 51.4001 0C26.2142 0 5.797 20.6539 5.797 46.1317C5.797 71.6095 26.2142 92.2634 51.4001 92.2634Z" fill="#F8F8FA"/>
<path d="M51.4001 91.0253C75.9101 91.0253 95.7794 70.9257 95.7794 46.1316C95.7794 21.3375 75.9101 1.23792 51.4001 1.23792C26.8901 1.23792 7.02081 21.3375 7.02081 46.1316C7.02081 70.9257 26.8901 91.0253 51.4001 91.0253Z" fill="#E8E5D6"/>
<path d="M51.4001 88.2887C74.4161 88.2887 93.0742 69.4144 93.0742 46.1317C93.0742 22.849 74.4161 3.97461 51.4001 3.97461C28.3842 3.97461 9.72607 22.849 9.72607 46.1317C9.72607 69.4144 28.3842 88.2887 51.4001 88.2887Z" fill="#CCBEAC"/>
<path d="M51.5289 86.725C73.4777 86.725 91.2706 68.7258 91.2706 46.5226C91.2706 24.3195 73.4777 6.32031 51.5289 6.32031C29.5802 6.32031 11.7872 24.3195 11.7872 46.5226C11.7872 68.7258 29.5802 86.725 51.5289 86.725Z" fill="#D6460D"/>
<path d="M17.0045 48.5425C17.0045 26.3237 34.782 8.3402 56.7462 8.3402C60.6753 8.3402 64.4756 8.92662 68.0182 9.96915C62.9941 7.68863 57.3904 6.32031 51.5289 6.32031C29.5647 6.32031 11.7872 24.3039 11.7872 46.5226C11.7872 64.7668 23.7677 80.144 40.257 85.096C26.5374 78.7757 17.0045 64.7668 17.0045 48.5425Z" fill="#BC3C0F"/>
<path d="M91.2707 46.5227C91.2707 30.2984 81.7378 16.2895 68.0182 9.96915C64.4112 8.92663 60.6754 8.34021 56.7463 8.34021C34.7821 8.34021 17.0046 26.3237 17.0046 48.5425C17.0046 64.7668 26.5374 78.7757 40.257 85.096C43.864 86.1386 47.5999 86.725 51.529 86.725C73.4288 86.725 91.2707 68.7414 91.2707 46.5227Z" fill="#D6460D"/>
<path d="M68.6623 14.2044C68.6623 15.1166 67.825 15.8985 66.73 15.8985C65.635 15.8985 64.7977 15.1166 64.7977 14.2044C64.7977 13.2921 65.635 12.5103 66.73 12.5103C67.825 12.5103 68.6623 13.2921 68.6623 14.2044Z" fill="#E55523"/>
<path d="M87.6636 53.0384C87.6636 53.7551 87.0195 54.3415 86.1822 54.3415C85.3448 54.3415 84.7007 53.7551 84.7007 53.0384C84.7007 52.3216 85.3448 51.7352 86.1822 51.7352C87.0195 51.7352 87.6636 52.3216 87.6636 53.0384Z" fill="#E55523"/>
<path d="M22.0287 57.5994C22.0287 58.3162 21.3845 58.9026 20.5472 58.9026C19.7098 58.9026 19.0657 58.3162 19.0657 57.5994C19.0657 56.8827 19.7098 56.2963 20.5472 56.2963C21.3845 56.2963 22.0287 56.8827 22.0287 57.5994Z" fill="#E55523"/>
<path d="M63.3806 16.1592C63.3806 17.0714 62.5433 17.8533 61.4483 17.8533C60.3533 17.8533 59.5159 17.0714 59.5159 16.1592C59.5159 15.247 60.3533 14.4651 61.4483 14.4651C62.5433 14.4651 63.3806 15.1818 63.3806 16.1592Z" fill="#E55523"/>
<path d="M77.1646 73.3676C77.1646 74.0843 76.5205 74.6708 75.6832 74.6708C74.8458 74.6708 74.2017 74.0843 74.2017 73.3676C74.2017 72.6509 74.8458 72.0645 75.6832 72.0645C76.5205 72.0645 77.1646 72.6509 77.1646 73.3676Z" fill="#E55523"/>
<path d="M49.0169 82.4897C49.0169 83.2065 48.3728 83.7929 47.5355 83.7929C46.6981 83.7929 46.054 83.2065 46.054 82.4897C46.054 81.773 46.6981 81.1866 47.5355 81.1866C48.3728 81.1214 49.0169 81.7078 49.0169 82.4897Z" fill="#E55523"/>
<path d="M39.0976 73.6934C39.0976 74.4101 38.4535 74.9966 37.6162 74.9966C36.7788 74.9966 36.1347 74.4101 36.1347 73.6934C36.1347 72.9767 36.7788 72.3903 37.6162 72.3903C38.4535 72.3903 39.0976 72.9115 39.0976 73.6934Z" fill="#E55523"/>
<path d="M83.1549 27.8875C83.1549 28.6042 82.5108 29.1907 81.6734 29.1907C80.8361 29.1907 80.192 28.6042 80.192 27.8875C80.192 27.1708 80.8361 26.5844 81.6734 26.5844C82.5108 26.5844 83.1549 27.1708 83.1549 27.8875Z" fill="#E55523"/>
<path d="M28.2765 32.3834C28.2765 33.1001 27.6324 33.6865 26.7951 33.6865C25.9577 33.6865 25.3136 33.1001 25.3136 32.3834C25.3136 31.6666 25.9577 31.0802 26.7951 31.0802C27.6324 31.0802 28.2765 31.6666 28.2765 32.3834Z" fill="#E55523"/>
<path d="M88.0501 38.7037C88.0501 40.2023 86.6975 41.3752 85.0228 41.3752C83.3481 41.3752 81.9955 40.2023 81.9955 38.7037C81.9955 37.2051 83.3481 36.0322 85.0228 36.0322C86.6975 36.0322 88.0501 37.2051 88.0501 38.7037Z" fill="#E55523"/>
<path d="M35.233 75.1921C35.233 76.4953 34.0091 77.5378 32.5921 77.5378C31.1106 77.5378 29.9512 76.4953 29.9512 75.1921C29.9512 73.889 31.175 72.8464 32.5921 72.8464C34.0091 72.8464 35.233 73.889 35.233 75.1921Z" fill="#E55523"/>
<path d="M72.527 70.0446C72.527 71.5432 71.11 72.8464 69.3709 72.8464C67.6318 72.8464 66.2147 71.6084 66.2147 70.0446C66.2147 68.546 67.6318 67.2428 69.3709 67.2428C71.1744 67.2428 72.527 68.4808 72.527 70.0446Z" fill="#E55523"/>
<path d="M41.4808 57.4691C42.6402 59.6845 41.4808 62.6166 38.9044 64.0501C36.2635 65.4835 33.2362 64.8971 32.0124 62.6818C30.853 60.4664 32.0124 57.5343 34.5888 56.1008C37.2297 54.7325 40.3214 55.3189 41.4808 57.4691Z" fill="#B2864B"/>
<path d="M41.6096 57.7297C42.7046 59.7496 41.4808 62.5514 38.8399 63.9849C36.1991 65.4184 33.2362 64.9622 32.1412 62.9424C31.0462 60.9225 32.27 58.1207 34.9109 56.6872C37.5517 55.2537 40.579 55.7098 41.6096 57.7297Z" fill="#EFD4AC"/>
<path d="M37.1009 60.6619L37.6162 60.1406C37.6162 60.1406 40.0638 59.489 41.6097 61.0528C41.6097 61.0528 41.1588 62.6166 39.4841 63.6591L37.1009 60.6619Z" fill="#B79363"/>
<path d="M37.0365 60.7271L36.328 60.8574C36.328 60.8574 34.5244 62.5515 34.9753 64.7668C34.9753 64.7668 36.5212 65.2229 38.2603 64.3759L37.0365 60.7271Z" fill="#B79363"/>
<path d="M37.6162 60.1406L36.9077 60.4013L36.2635 60.8574L38.9688 66.7216C39.2265 67.3731 39.9994 67.5686 40.5791 67.2428C41.1588 66.917 41.352 66.1351 41.03 65.5487L37.6162 60.1406Z" fill="#EFD4AC"/>
<path d="M79.2902 33.6866C76.907 33.5562 75.0391 31.0802 75.2323 28.083C75.3611 25.1509 77.4867 22.8704 79.8699 23.0007C82.2531 23.131 84.121 25.607 83.9278 28.6042C83.7346 31.5363 81.6734 33.8169 79.2902 33.6866Z" fill="#B2864B"/>
<path d="M78.9681 33.6865C76.7137 33.5562 75.039 31.0802 75.2323 28.1481C75.4255 25.216 77.2934 22.9355 79.5478 23.0006C81.8022 23.1309 83.4769 25.6069 83.2837 28.539C83.1549 31.4711 81.2225 33.8168 78.9681 33.6865Z" fill="#EFD4AC"/>
<path d="M78.9037 28.3436L79.097 29.0604C79.097 29.0604 78.3884 31.406 76.2629 31.9273C76.2629 31.9273 75.1679 30.6893 75.1679 28.7997L78.9037 28.3436Z" fill="#B79363"/>
<path d="M78.9037 28.2785L79.1614 27.6269C79.1614 27.6269 78.7105 25.2161 76.6493 24.4342C76.6493 24.4342 75.4899 25.4767 75.2967 27.3663L78.9037 28.2785Z" fill="#B79363"/>
<path d="M79.0969 29.0604L79.2258 28.3437L79.1614 27.5618L72.9779 26.845C72.3338 26.7799 71.7541 27.236 71.6897 27.9527C71.6252 28.6043 72.2049 29.1907 72.8491 29.1907L79.0969 29.0604Z" fill="#EFD4AC"/>
<path d="M19.0657 49.8456C19.3878 47.4348 21.9642 45.8059 24.8627 46.1316C27.7612 46.5226 29.8224 48.8031 29.5647 51.2139C29.2427 53.6248 26.6662 55.2537 23.7677 54.9279C20.8692 54.537 18.7437 52.2565 19.0657 49.8456Z" fill="#B2864B"/>
<path d="M29.5554 50.932C29.8439 48.6837 27.7326 46.5532 24.8398 46.1735C21.947 45.7937 19.3681 47.3084 19.0797 49.5567C18.7913 51.805 20.9025 53.9354 23.7953 54.3152C26.6881 54.695 29.267 53.1802 29.5554 50.932Z" fill="#EFD4AC"/>
<path d="M24.3474 49.9109L23.6389 50.0412C23.6389 50.0412 21.3845 49.129 20.998 46.9788C20.998 46.9788 22.2863 46.0014 24.1542 46.1317L24.3474 49.9109Z" fill="#B79363"/>
<path d="M24.4119 49.9108L25.056 50.2366C25.056 50.2366 27.5036 49.9108 28.4054 47.9561C28.4054 47.9561 27.4392 46.7181 25.5713 46.3271L24.4119 49.9108Z" fill="#B79363"/>
<path d="M23.6389 50.0411L24.3474 50.2366H25.1204L26.3442 44.0466C26.473 43.395 26.0221 42.7435 25.378 42.6783C24.7339 42.6131 24.1542 43.0692 24.0898 43.786L23.6389 50.0411Z" fill="#EFD4AC"/>
<path d="M34.3312 55.9706C35.3618 51.9959 36.3923 47.5 34.3956 43.9164C33.3006 41.8965 31.3683 40.5282 29.5003 39.1599C28.2121 38.2476 26.7307 37.2703 25.2492 37.7264C24.0254 38.1173 23.1881 39.3553 22.866 40.5933C22.2219 43.0042 22.9948 45.6756 24.7339 47.3697C26.4086 48.9987 28.9851 49.976 29.4359 52.2566C29.6936 53.6249 29.0495 54.928 28.7274 56.2312C28.3409 57.5343 28.3409 59.2284 29.5003 60.0103C30.5309 60.7271 32.0124 60.271 32.9141 59.3587C33.6227 58.4465 34.0091 57.2085 34.3312 55.9706Z" fill="#D6460D"/>
<path d="M29.8224 67.4383C28.2121 64.7669 27.7612 61.2483 29.0495 58.3814C30.3377 55.5145 33.6227 53.5597 36.65 54.2765C34.5244 56.4267 33.9447 60.0103 35.2973 62.6818C35.8126 63.6592 36.5212 64.5062 37.0365 65.4836C37.5517 66.461 37.8738 67.6338 37.5517 68.6763C37.0365 70.2401 35.1041 71.022 33.4938 70.5659C31.8836 70.2401 30.6597 68.8718 29.8224 67.4383Z" fill="#D6460D"/>
<path d="M33.8803 34.5336C31.4971 34.4033 29.6292 31.9273 29.8224 28.93C29.9512 25.9979 32.0768 23.7174 34.46 23.8477C36.8432 23.978 38.7111 26.454 38.5179 29.4513C38.3891 32.3834 36.3279 34.6639 33.8803 34.5336Z" fill="#B2864B"/>
<path d="M33.6227 34.5335C31.3683 34.4032 29.6936 31.9272 29.8868 28.9951C30.0156 26.063 31.948 23.7825 34.2024 23.8477C36.4568 23.978 38.1315 26.454 37.9382 29.3861C37.745 32.3833 35.8126 34.6639 33.6227 34.5335Z" fill="#EFD4AC"/>
<path d="M33.5582 29.2559L33.7515 29.9726C33.7515 29.9726 33.0429 32.3183 30.9174 32.8395C30.9174 32.8395 29.8224 31.6015 29.8224 29.712L33.5582 29.2559Z" fill="#B79363"/>
<path d="M33.5583 29.1256L33.8159 28.474C33.8159 28.474 33.365 26.0631 31.3039 25.2812C31.3039 25.2812 30.1445 26.3238 29.9512 28.2133L33.5583 29.1256Z" fill="#B79363"/>
<path d="M33.7515 29.9074L33.8803 29.1906L33.8159 28.4739L27.6324 27.7572C26.9883 27.692 26.4086 28.1481 26.3442 28.8648C26.2798 29.5164 26.8595 30.1028 27.5036 30.1028L33.7515 29.9074Z" fill="#EFD4AC"/>
<path d="M37.1653 75.192C38.1315 72.9767 41.0944 72.1296 43.7352 73.3025C46.3761 74.4753 47.7931 77.2771 46.827 79.4925C45.8608 81.7078 42.8979 82.5549 40.257 81.382C37.5518 80.2092 36.1991 77.4074 37.1653 75.192Z" fill="#B2864B"/>
<path d="M37.2941 74.9314C38.1959 72.8464 41.0944 72.1948 43.7353 73.3676C46.3761 74.5405 47.8576 77.2119 46.9558 79.2318C46.0541 81.3169 43.1556 81.9685 40.5147 80.7956C37.8094 79.6228 36.3924 77.0165 37.2941 74.9314Z" fill="#EFD4AC"/>
<path d="M42.1893 76.7559L41.4808 76.6907C41.4808 76.6907 39.5485 75.1269 39.8061 72.9767C39.8061 72.9767 41.2876 72.3903 43.0911 73.0419L42.1893 76.7559Z" fill="#B79363"/>
<path d="M42.2538 76.8209L42.7691 77.277C42.7691 77.277 45.1523 77.668 46.5693 76.039C46.5693 76.039 45.9896 74.6056 44.3149 73.6934L42.2538 76.8209Z" fill="#B79363"/>
<path d="M41.4808 76.6907L42.1249 77.0816L42.8335 77.2771L45.732 71.6735C46.054 71.0871 45.7964 70.3704 45.1523 70.0446C44.5726 69.7839 43.864 70.0446 43.6064 70.6962L41.4808 76.6907Z" fill="#EFD4AC"/>
<path d="M64.4112 17.5274C65.313 19.8731 63.7671 22.6097 60.9974 23.7174C58.2277 24.8251 55.2648 23.8477 54.3631 21.5021C53.4613 19.1564 55.0072 16.4198 57.7768 15.3121C60.5465 14.2695 63.5094 15.2469 64.4112 17.5274Z" fill="#B2864B"/>
<path d="M64.54 17.7881C65.3774 19.9383 63.8315 22.5446 61.0618 23.6523C58.2921 24.7599 55.3936 23.9129 54.5563 21.7627C53.719 19.6125 55.2648 17.0062 58.0345 15.8985C60.7398 14.856 63.7027 15.6378 64.54 17.7881Z" fill="#EFD4AC"/>
<path d="M59.7092 20.1337L60.2889 19.6776C60.2889 19.6776 62.7365 19.3518 64.1536 21.1111C64.1536 21.1111 63.5095 22.6097 61.7059 23.4568L59.7092 20.1337Z" fill="#B79363"/>
<path d="M59.5803 20.1338L58.8718 20.1989C58.8718 20.1989 56.8751 21.6976 57.0039 23.9129C57.0039 23.9129 58.4854 24.5645 60.2889 23.9129L59.5803 20.1338Z" fill="#B79363"/>
<path d="M60.2245 19.6776L59.5159 19.8731L58.8718 20.264L60.8042 26.3889C60.9974 27.0404 61.7059 27.3662 62.35 27.1056C62.9941 26.845 63.2518 26.1282 62.9941 25.4767L60.2245 19.6776Z" fill="#EFD4AC"/>
<path d="M83.1549 26.1934C82.5752 26.6495 81.8022 26.7798 81.0937 26.845C77.2935 27.3662 73.6864 28.5391 69.9506 29.321C66.2147 30.1029 62.2212 30.3635 58.6786 29.0603C55.136 27.7572 52.0443 24.5645 51.9799 20.8505C53.9766 23.0658 57.326 24.0432 60.2889 23.2613C62.2212 22.74 63.9603 21.5672 65.8927 21.3066C68.1471 21.0459 70.4015 22.0885 72.6559 22.2188C75.5544 22.4142 78.5817 21.1111 81.3514 21.9581C82.2531 22.2188 83.0905 22.8052 83.5413 23.6522C83.9922 24.4341 83.8634 25.5418 83.1549 26.1934Z" fill="#D6460D"/>
<path d="M70.9812 36.8141L64.4757 39.0295L61.5771 42.4828L65.3774 40.2023L73.1712 39.0295L70.9812 36.8141Z" fill="#FC9E40"/>
<path d="M72.0117 41.6357L65.1197 42.0267L61.4483 44.5678L65.6994 43.395L73.5576 44.3072L72.0117 41.6357Z" fill="#FC9E40"/>
<path d="M72.8491 47.0438L66.408 44.5027L62.028 45.2846L66.3436 46.0013L73.1711 50.1063L72.8491 47.0438Z" fill="#FC9E40"/>
<path d="M69.8862 51.3443L64.218 47.3697L59.7092 47.1742L63.8315 48.8683L69.4997 54.4067L69.8862 51.3443Z" fill="#FC9E40"/>
<path d="M66.2791 33.3607L61.0618 37.9218L59.7092 42.2222L62.3501 38.7037L69.1776 34.5987L66.2791 33.3607Z" fill="#FC9E40"/>
<path d="M15.8452 17.5274C18.0352 26.7146 24.4119 34.4033 32.9786 38.1824C41.9961 42.0919 52.7528 40.7236 60.8042 35.1851C61.4483 34.729 60.8686 33.7517 60.2245 34.1426C52.2375 39.6159 41.8673 40.7236 32.9786 36.8792C24.9272 33.3607 19.0013 25.7373 17.0046 17.2668C16.8114 16.4849 15.652 16.8107 15.8452 17.5274Z" fill="#DB6D17"/>
<path d="M60.8686 54.537C60.8686 54.537 52.1087 50.2366 45.9896 49.7805C45.9896 49.7805 54.041 55.8402 61.7704 56.166L60.8686 54.537Z" fill="#DB6D17"/>
<path d="M60.8042 55.4492C60.8042 55.4492 51.7222 51.8655 45.6031 51.8655C45.6031 51.8655 54.1698 57.2736 61.8992 57.0129L60.8042 55.4492Z" fill="#DB6D17"/>
<path d="M62.6721 56.8175C62.6721 56.8175 53.2681 54.0809 47.2134 54.6673C47.2134 54.6673 56.3598 59.2935 63.9604 58.251L62.6721 56.8175Z" fill="#DB6D17"/>
<path d="M63.7027 58.251C63.7027 58.251 55.9734 56.6872 51.1425 57.5343C51.1425 57.5343 58.8074 60.5967 64.7977 59.2935L63.7027 58.251Z" fill="#DB6D17"/>
<path d="M70.6591 48.2167C68.0183 51.3442 64.3468 53.4945 60.3533 54.2112C60.6754 56.6872 60.4177 57.2736 61.7704 59.3586C65.2486 60.9224 69.9506 61.3785 73.3644 60.336C76.7782 59.2283 80.0632 57.0781 81.7379 53.8854C78.3885 51.5397 74.5238 49.7153 70.6591 48.2167Z" fill="#EA8329"/>
<path d="M61.8348 53.8854C61.3195 54.0157 60.8686 54.146 60.3533 54.2112C60.6754 56.6872 60.4177 57.2736 61.7704 59.3586C64.4112 60.5315 67.6962 61.1179 70.6591 60.8573C68.1471 60.5315 65.6995 59.8799 63.5739 58.9025C62.1568 56.6872 62.028 55.7098 61.8348 53.8854Z" fill="#D36A18"/>
<path d="M64.9909 57.9252C63.7027 55.9705 63.3162 54.8628 63.123 53.4945C62.7365 53.6248 62.2856 53.7551 61.8992 53.8855C62.0924 55.7099 62.2212 56.6872 63.6383 58.9026C65.7638 59.88 68.2115 60.5315 70.7235 60.8573C71.6897 60.7922 72.5914 60.5967 73.4288 60.3361C73.7508 60.2058 74.0729 60.1406 74.4594 60.0103C74.0085 60.0754 73.622 60.1406 73.1711 60.2058C70.2726 59.8148 67.4385 59.0329 64.9909 57.9252Z" fill="#EA8329"/>
<path d="M81.8022 53.8854C78.3884 51.6049 74.5238 49.7805 70.6591 48.2819C68.6623 50.6927 66.0215 52.5171 63.123 53.5596C63.3162 54.9279 63.7027 56.0356 64.9909 57.9904C67.4385 59.098 70.2726 59.8799 73.1067 60.2057C73.5576 60.1406 74.0085 60.0754 74.3949 60.0103C77.4867 58.8374 80.3208 56.7524 81.8022 53.8854Z" fill="#F99A4F"/>
<path d="M83.4769 47.8257C84.7007 50.8881 82.8328 54.7976 80.7072 57.2736C76.0696 56.9478 71.3676 54.0157 69.3065 49.8456C70.4014 48.347 71.3676 46.718 72.4626 45.2845C75.1679 47.4348 79.9987 48.0863 83.4769 47.8257Z" fill="#F99A4F"/>
<path d="M82.8972 38.7688C85.3449 40.9842 85.4093 45.2846 84.6363 48.4773C80.3852 50.3017 74.9103 49.8456 71.1744 47.0438C71.4965 45.2194 71.6253 43.3298 71.9473 41.5054C75.2967 42.2222 79.9343 40.5932 82.8972 38.7688Z" fill="#F99A4F"/>
<path d="M78.9038 30.6241C82.0599 31.5364 83.9278 35.4458 84.5719 38.7037C81.4802 42.2222 76.3273 44.1118 71.7541 43.1996C71.2388 41.4403 70.5947 39.6159 70.1438 37.8567C73.4288 36.9444 76.9714 33.5562 78.9038 30.6241Z" fill="#F99A4F"/>
<path d="M73.8152 27.1056C77.1002 27.1707 80.2564 29.1906 81.7378 32.1227C79.6767 36.358 75.2323 39.6159 70.5947 39.9417C69.6285 38.3779 68.5335 36.8141 67.6318 35.2503C70.6591 33.5562 72.7847 30.4286 73.8152 27.1056Z" fill="#EA8329"/>
<path d="M81.4158 31.5363C79.2902 35.7064 74.8458 38.8991 70.2726 39.3552C70.4015 39.5507 70.5303 39.7461 70.6591 39.9416C75.2967 39.6158 79.7411 36.2928 81.8022 32.1227C81.6734 31.9272 81.5446 31.7317 81.4158 31.5363Z" fill="#D36A18"/>
<path d="M81.4158 31.5363C80.9005 30.6892 80.2564 29.9073 79.4834 29.2557C77.7443 33.5561 74.0729 37.205 69.7574 38.5733C69.9506 38.8339 70.1438 39.1597 70.2726 39.4203C74.8458 38.8991 79.2902 35.7064 81.4158 31.5363Z" fill="#EA8329"/>
<path d="M79.4834 29.2558C77.9376 27.9526 75.8764 27.1707 73.8797 27.1056C72.8491 30.4286 70.7235 33.5562 67.6962 35.3155C68.3403 36.4232 69.1132 37.4657 69.7574 38.5734C74.0729 37.205 77.7443 33.4911 79.4834 29.2558Z" fill="#F99A4F"/>
<path d="M66.2792 25.2812C69.1777 24.8251 72.205 25.216 74.9103 26.3889C75.3611 28.6694 74.7814 30.8196 73.7509 32.9046C72.7203 34.9897 70.9168 36.6186 68.8556 37.596C66.9233 36.6838 64.9265 35.3806 63.2518 34.0123C64.7977 31.3409 65.5706 28.2784 66.2792 25.2812Z" fill="#F99A4F"/>
<path d="M66.408 35.9019C63.8315 32.3834 61.5771 28.0178 57.326 27.3011C55.0072 26.9101 52.624 27.4966 50.2408 27.8223C45.0879 28.4739 39.8062 27.4966 35.233 25.1509C35.3618 25.4115 35.4906 25.607 35.6194 25.8676C35.233 25.9979 34.8465 26.1934 34.46 26.3237C37.6806 28.4088 41.352 29.7771 44.5082 31.8621C46.827 33.3608 49.4678 35.4458 52.1087 36.2277C57.2616 37.7263 60.611 36.8141 66.408 35.9019Z" fill="#EA8329"/>
<path d="M66.6012 24.8902C61.4483 23.9129 56.1666 24.2387 50.9493 24.1735C45.732 24.1083 40.3858 23.5871 35.7482 21.1111C35.8771 21.3066 35.6194 21.2414 35.7482 21.4369C35.4262 21.3717 35.0397 21.3066 34.7177 21.3066C36.7788 25.9979 41.5452 29.3861 46.6337 29.7771C51.7866 34.7942 59.2583 37.0747 66.3435 35.9671C67.825 34.4684 68.5979 33.035 68.7912 30.8847C68.9844 28.7997 67.7606 26.6495 66.6012 24.8902Z" fill="#FFA353"/>
<path d="M46.7626 25.7373C46.7626 26.6495 45.9897 27.4314 45.0879 27.4314C44.1861 27.4314 43.4132 26.6495 43.4132 25.7373C43.4132 24.8251 44.1861 24.0432 45.0879 24.0432C46.0541 24.0432 46.7626 24.7599 46.7626 25.7373Z" fill="#443225"/>
<path d="M45.732 25.3463C45.732 25.8025 45.4099 26.1282 44.959 26.1282C44.5082 26.1282 44.1861 25.8025 44.1861 25.3463C44.1861 24.8902 44.5082 24.5645 44.959 24.5645C45.4099 24.6296 45.732 24.9554 45.732 25.3463Z" fill="#82604E"/>
<path d="M24.6695 9.6433C23.8966 17.8532 27.3104 25.9979 33.6227 31.2757C39.935 36.4883 48.9525 37.7915 56.6175 35.1851C57.326 34.9245 57.0039 33.8168 56.2954 34.0123C49.017 36.4883 41.1588 35.2503 34.9109 30.7544C28.4054 26.0631 25.1204 17.5274 25.8933 9.6433C25.9577 8.86141 24.7339 8.86141 24.6695 9.6433Z" fill="#DB6D17"/>
<path d="M74.9102 26.3889C72.9779 25.5418 72.2694 25.4115 70.9168 25.1509C71.8829 27.4314 70.6591 31.6667 67.503 36.8793C67.9538 37.1399 68.3403 37.3354 68.7912 37.5309C70.8523 36.5535 72.6559 34.9245 73.6864 32.8395C74.7814 30.8196 75.3611 28.6694 74.9102 26.3889Z" fill="#EA8329"/>
<path d="M74.9103 26.3889C74.8458 26.3237 74.717 26.3237 74.6526 26.2585C74.7814 28.3436 74.1373 30.3635 73.1711 32.2531C72.0762 34.4033 70.3371 36.1625 68.2115 37.2702C68.4047 37.4005 68.598 37.4657 68.8556 37.596C70.9168 36.6186 72.7203 34.9897 73.7508 32.9046C74.7814 30.8196 75.3611 28.6694 74.9103 26.3889Z" fill="#D36A18"/>
<path d="M71.5609 42.6783C71.6253 42.8086 71.6253 43.0041 71.6897 43.1344C76.2629 44.0466 81.4158 42.157 84.5075 38.6385C84.4431 38.3779 84.3787 38.1172 84.3143 37.9218C81.0937 41.1796 76.1985 43.0692 71.5609 42.6783Z" fill="#D36A18"/>
<path d="M84.3787 37.9217C84.3787 37.7914 84.3143 37.6611 84.3143 37.5308C80.9649 40.7886 75.9408 42.5479 71.3676 41.8312C71.4321 42.0918 71.5609 42.3524 71.6253 42.6782C76.1985 43.0692 81.0937 41.1796 84.3787 37.9217Z" fill="#EA8329"/>
<path d="M71.2388 46.4574C71.2388 46.6529 71.1744 46.9135 71.1744 47.109C74.9103 49.9108 80.3852 50.3669 84.6363 48.5424C84.7008 48.2167 84.7652 47.8909 84.8296 47.5651C80.5784 49.2592 75.1679 48.9334 71.2388 46.4574Z" fill="#D36A18"/>
<path d="M71.432 45.2845C71.3676 45.6755 71.3032 46.0664 71.3032 46.4574C75.2323 48.9334 80.5784 49.2592 84.894 47.4999C84.9584 47.0438 85.0228 46.5225 85.0872 46.0013C80.7073 47.6302 75.5544 47.3696 71.432 45.2845Z" fill="#EA8329"/>
<path d="M69.8862 48.9985C69.6929 49.2592 69.4997 49.585 69.3065 49.8456C71.3676 54.0157 76.0696 56.9478 80.7072 57.2736C80.9649 56.9478 81.2225 56.622 81.4802 56.2962C76.8426 55.6446 72.3338 52.908 69.8862 48.9985Z" fill="#D36A18"/>
<path d="M70.4659 48.0864C70.2726 48.4122 70.0794 48.6728 69.8862 48.9335C72.3982 52.8429 76.8426 55.6447 81.4802 56.2311C81.8022 55.8402 82.0599 55.3841 82.3175 54.928C77.6155 54.537 73.0423 51.9307 70.4659 48.0864Z" fill="#EA8329"/>
<path d="M55.2004 50.4973L48.6305 52.7127L45.7964 56.166L49.5966 53.8855L57.3904 52.6475L55.2004 50.4973Z" fill="#FC9E40"/>
<path d="M56.231 55.2538L49.339 55.6447L45.6675 58.251L49.9187 57.0782L57.7124 57.9904L56.231 55.2538Z" fill="#FC9E40"/>
<path d="M57.0039 60.6619L50.6272 58.1859L46.1829 58.9678L50.5628 59.6845L57.326 63.7895L57.0039 60.6619Z" fill="#FC9E40"/>
<path d="M54.1054 64.9624L48.3728 61.0529L43.9285 60.8574L47.9864 62.4864L53.6546 68.0899L54.1054 64.9624Z" fill="#FC9E40"/>
<path d="M50.4984 47.0439L45.2811 51.605L43.864 55.9054L46.5693 52.3217L53.3325 48.2168L50.4984 47.0439Z" fill="#FC9E40"/>
<path d="M5.46034e-06 31.2106C2.18999 40.3978 8.63111 48.0865 17.1978 51.8004C26.2154 55.7099 36.972 54.3416 45.0234 48.8032C45.6675 48.3471 45.0878 47.3697 44.4437 47.7607C36.4567 53.2339 26.0865 54.3416 17.1334 50.4973C9.08198 46.9788 3.15615 39.4205 1.15941 30.8848C0.966173 30.1029 -0.128817 30.4287 5.46034e-06 31.2106Z" fill="#DB6D17"/>
<path d="M45.0235 68.2201C45.0235 68.2201 36.2635 63.9197 30.1445 63.4636C30.1445 63.4636 38.1959 69.5233 45.9252 69.8491L45.0235 68.2201Z" fill="#DB6D17"/>
<path d="M45.0234 69.1324C45.0234 69.1324 35.9415 65.5487 29.8224 65.5487C29.8224 65.5487 38.3891 70.9568 46.1184 70.6962L45.0234 69.1324Z" fill="#DB6D17"/>
<path d="M46.827 70.4356C46.827 70.4356 37.4229 67.699 31.3683 68.2854C31.3683 68.2854 40.5147 72.9116 48.1152 71.8691L46.827 70.4356Z" fill="#DB6D17"/>
<path d="M47.8575 71.869C47.8575 71.869 40.1282 70.3052 35.2974 71.1523C35.2974 71.1523 42.9623 74.2147 48.9525 72.9116L47.8575 71.869Z" fill="#DB6D17"/>
<path d="M54.8784 61.8999C52.2375 65.0275 48.5661 67.1777 44.5726 67.8944C44.8946 70.3704 44.637 70.9568 45.9896 73.0419C49.4678 74.6057 54.1698 75.0618 57.5836 74.0192C60.9974 72.9116 64.2824 70.7614 65.9571 67.5686C62.5433 65.2229 58.6786 63.3985 54.8784 61.8999Z" fill="#EA8329"/>
<path d="M46.054 67.5686C45.5387 67.6989 45.0879 67.8292 44.5726 67.8944C44.8946 70.3704 44.637 70.9568 45.9896 73.0419C48.6305 74.2147 51.9154 74.8011 54.8784 74.5405C52.3663 74.2147 49.9187 73.5631 47.7931 72.5858C46.3761 70.3704 46.2473 69.393 46.054 67.5686Z" fill="#D36A18"/>
<path d="M49.1458 71.6085C47.8575 69.6537 47.4711 68.546 47.2778 67.1777C46.8914 67.308 46.4405 67.4384 46.054 67.5687C46.2472 69.3931 46.3761 70.3705 47.7931 72.5858C49.9187 73.5632 52.3663 74.2148 54.8783 74.5406C55.8445 74.4754 56.7463 74.2799 57.5836 74.0193C57.9057 73.889 58.2277 73.8238 58.6142 73.6935C58.1633 73.7587 57.7769 73.8238 57.326 73.889C54.4275 73.4329 51.5934 72.7161 49.1458 71.6085Z" fill="#EA8329"/>
<path d="M65.9571 67.5035C62.5433 65.2229 58.6786 63.3985 54.8139 61.8999C52.8172 64.3107 50.1763 66.1352 47.2778 67.1777C47.4711 68.546 47.8575 69.6537 49.1458 71.6084C51.5934 72.7161 54.4275 73.498 57.2616 73.8238C57.7124 73.7586 58.1633 73.6935 58.5498 73.6283C61.7059 72.4555 64.4756 70.4356 65.9571 67.5035Z" fill="#F99A4F"/>
<path d="M67.6318 61.4437C68.8556 64.5062 66.9877 68.4156 64.8621 70.8916C60.2245 70.5658 55.5225 67.6337 53.4613 63.4636C54.5563 61.965 55.5225 60.3361 56.6175 58.9026C59.3227 61.0528 64.1536 61.7695 67.6318 61.4437Z" fill="#F99A4F"/>
<path d="M67.1165 52.452C69.5641 54.6674 69.6285 58.9678 68.8556 62.1605C64.6044 63.9849 59.1295 63.5288 55.3936 60.7271C55.7157 58.9026 55.8445 57.0131 56.1665 55.1886C59.5159 55.9054 64.1535 54.2764 67.1165 52.452Z" fill="#F99A4F"/>
<path d="M63.0586 44.2422C66.2147 45.1544 68.0826 49.0639 68.7267 52.3217C65.635 55.8403 60.4821 57.7298 55.9089 56.8176C55.3936 55.0584 54.7495 53.234 54.2986 51.4747C57.648 50.6276 61.1906 47.1743 63.0586 44.2422Z" fill="#F99A4F"/>
<path d="M58.0345 40.7888C61.3195 40.854 64.4756 42.8739 65.9571 45.806C63.8959 50.0412 59.4515 53.2991 54.8139 53.6249C53.8478 52.0611 52.7528 50.4973 51.851 48.9335C54.8139 47.1743 57.0039 44.1119 58.0345 40.7888Z" fill="#EA8329"/>
<path d="M65.635 45.2195C63.5095 49.3896 59.0651 52.5823 54.4919 53.0384C54.6207 53.2339 54.7495 53.4294 54.8783 53.6248C59.516 53.299 63.9603 49.976 66.0215 45.8059C65.8283 45.5453 65.6994 45.415 65.635 45.2195Z" fill="#D36A18"/>
<path d="M65.635 45.2195C65.1197 44.3724 64.4756 43.5905 63.7027 42.939C61.9635 47.2394 58.2921 50.8882 53.9766 52.2565C54.1698 52.5172 54.363 52.8429 54.4918 53.1036C59.065 52.5823 63.445 49.3244 65.635 45.2195Z" fill="#EA8329"/>
<path d="M63.6383 42.8738C62.0924 41.5707 60.0312 40.7888 58.0345 40.7236C57.0039 44.0467 54.8783 47.1742 51.851 48.9335C52.4951 50.0412 53.2681 51.0837 53.9122 52.1914C58.2277 50.8231 61.9636 47.1743 63.6383 42.8738Z" fill="#F99A4F"/>
<path d="M50.4984 38.8992C53.3969 38.4431 56.4242 38.8341 59.1295 40.0069C59.5804 42.2874 59.0007 44.4376 57.9701 46.5227C56.9395 48.6077 55.136 50.2367 53.0748 51.214C51.1425 50.3018 49.1458 48.9987 47.4711 47.6304C49.0169 44.9589 49.7899 41.9616 50.4984 38.8992Z" fill="#F99A4F"/>
<path d="M50.6272 49.5199C48.0508 46.0014 45.7964 41.6359 41.5452 40.9191C39.2264 40.5282 36.8432 41.1146 34.46 41.4404C29.3071 42.092 24.0254 41.1146 19.4522 38.7689C19.581 39.0296 19.7098 39.225 19.8387 39.4857C19.4522 39.616 19.0657 39.8114 18.6793 39.9418C21.8998 42.0268 25.5713 43.3951 28.7274 45.4802C31.0462 46.9788 33.6871 49.0638 36.3279 49.8457C41.4164 51.4095 44.8302 50.4322 50.6272 49.5199Z" fill="#EA8329"/>
<path d="M50.8204 38.5083C45.6675 37.5309 40.3858 37.8567 35.1685 37.7916C29.9512 37.7916 24.5407 37.2703 19.9675 34.7943C20.0963 34.9898 19.8386 34.9246 19.9675 35.1201C19.6454 35.0549 19.2589 34.9898 18.9369 34.9898C20.998 39.6811 25.7645 43.0693 30.853 43.4603C36.0059 48.4774 43.4776 50.758 50.5628 49.6503C52.0442 48.1516 52.8172 46.7182 53.0104 44.568C53.1392 42.4178 51.9798 40.2676 50.8204 38.5083Z" fill="#FFA353"/>
<path d="M30.9818 39.3554C30.9818 40.2676 30.2088 41.0495 29.3071 41.0495C28.4053 41.0495 27.6324 40.2676 27.6324 39.3554C27.6324 38.4431 28.4053 37.6613 29.3071 37.6613C30.2088 37.6613 30.9818 38.4431 30.9818 39.3554Z" fill="#443225"/>
<path d="M29.1783 39.8115C29.6051 39.8115 29.9512 39.4614 29.9512 39.0296C29.9512 38.5977 29.6051 38.2477 29.1783 38.2477C28.7514 38.2477 28.4053 38.5977 28.4053 39.0296C28.4053 39.4614 28.7514 39.8115 29.1783 39.8115Z" fill="#82604E"/>
<path d="M8.88876 23.2613C8.11582 31.4712 11.5296 39.6159 17.8419 44.8937C24.1542 50.1063 33.1718 51.4095 40.8367 48.8032C41.5452 48.5426 41.2232 47.4349 40.5147 47.6303C33.2362 50.1063 25.378 48.8683 19.1301 44.3725C12.6246 39.6811 9.33964 31.1454 10.1126 23.2613C10.1126 22.4795 8.95317 22.5446 8.88876 23.2613Z" fill="#DB6D17"/>
<path d="M59.1295 40.0069C57.1971 39.1599 56.4886 39.0296 55.136 38.7689C56.1021 41.0494 54.8783 45.2847 51.7222 50.4973C52.173 50.7579 52.5595 50.9534 53.0104 51.1489C55.0716 50.1715 56.8751 48.5426 57.9056 46.4575C59.0006 44.5028 59.5159 42.2874 59.1295 40.0069Z" fill="#EA8329"/>
<path d="M59.1295 40.0069C59.0651 39.9417 58.9363 39.9417 58.8718 39.8766C59.0007 41.9616 58.3566 43.9815 57.3904 45.8711C56.2954 48.0213 54.5563 49.7806 52.4307 50.8882C52.624 51.0186 52.8172 51.0837 53.0748 51.214C55.136 50.2367 56.9395 48.6077 57.9701 46.5227C59.0007 44.5028 59.516 42.2874 59.1295 40.0069Z" fill="#D36A18"/>
<path d="M55.7801 56.3615C55.8445 56.4918 55.8445 56.6873 55.9089 56.8176C60.4821 57.7298 65.635 55.8402 68.7267 52.3217C68.6623 52.0611 68.5979 51.8005 68.5335 51.605C65.2485 54.8629 60.3533 56.7524 55.7801 56.3615Z" fill="#D36A18"/>
<path d="M68.5335 51.5399C68.5335 51.4096 68.4691 51.2792 68.4691 51.1489C65.1197 54.4068 60.0957 56.1661 55.5225 55.5145C55.5869 55.7751 55.7157 56.0358 55.7801 56.3615C60.3533 56.7525 65.2486 54.8629 68.5335 51.5399Z" fill="#EA8329"/>
<path d="M55.458 60.0754C55.458 60.2709 55.3936 60.5315 55.3936 60.727C59.1295 63.5288 64.6044 63.9849 68.8556 62.1605C68.92 61.8347 68.9844 61.5089 69.0488 61.1831C64.7332 62.9424 59.3871 62.5514 55.458 60.0754Z" fill="#D36A18"/>
<path d="M55.5868 58.9678C55.5224 59.3587 55.458 59.7497 55.458 60.1406C59.3871 62.6166 64.7332 62.9424 69.0488 61.1831C69.1132 60.727 69.1776 60.2058 69.242 59.6845C64.862 61.2483 59.7091 61.0528 55.5868 58.9678Z" fill="#EA8329"/>
<path d="M54.041 62.6166C53.8478 62.8772 53.6545 63.203 53.4613 63.4636C55.5225 67.6337 60.2245 70.5658 64.8621 70.8916C65.1197 70.5658 65.3774 70.24 65.635 69.9142C61.0618 69.3278 56.553 66.5912 54.041 62.6166Z" fill="#D36A18"/>
<path d="M54.6207 61.7695C54.4275 62.0953 54.2342 62.3559 54.041 62.6166C56.5531 66.526 60.9974 69.3278 65.635 69.9142C65.9571 69.5233 66.2147 69.0672 66.4724 68.6111C61.8348 68.155 57.1972 65.5487 54.6207 61.7695Z" fill="#EA8329"/>
<path d="M69.6929 60.8573L87.2772 43.786C87.2772 43.786 85.9246 56.8827 81.0293 60.1406C76.1341 63.3985 69.6929 60.8573 69.6929 60.8573Z" fill="#348456"/>
<path d="M69.6929 60.8573L87.2772 43.786C87.2772 43.786 74.2661 44.6331 70.8523 49.4547C67.4385 54.2113 69.6929 60.8573 69.6929 60.8573Z" fill="#327C50"/>
<path d="M86.2466 44.7634C86.2466 44.7634 71.6897 56.557 69.6929 60.8574C74.0085 59.033 86.2466 44.7634 86.2466 44.7634Z" fill="#3FB26E"/>
<path d="M70.4014 61.3135L53.4613 57.5995C53.4613 57.5995 61.6415 53.234 65.5062 54.7977C69.3065 56.4267 70.4014 61.3135 70.4014 61.3135Z" fill="#348456"/>
<path d="M70.4014 61.3135L53.4613 57.5995C53.4613 57.5995 59.1295 65.0275 63.3162 65.1578C67.4385 65.2881 70.4014 61.3135 70.4014 61.3135Z" fill="#327C50"/>
<path d="M54.4275 57.795C54.4275 57.795 67.1165 61.7697 70.3371 61.2484C67.6318 59.424 54.4275 57.795 54.4275 57.795Z" fill="#3FB26E"/>
<path d="M72.5914 54.6022C67.9538 54.6022 64.1535 58.4465 64.1535 63.1378C64.1535 67.8292 67.9538 71.6735 72.5914 71.6735C77.229 71.6735 81.0293 67.8292 81.0293 63.1378C81.0293 58.4465 77.229 54.6022 72.5914 54.6022ZM72.5914 71.2826C68.147 71.2826 64.54 67.6337 64.54 63.1378C64.54 58.642 68.147 54.9931 72.5914 54.9931C77.0358 54.9931 80.6428 58.642 80.6428 63.1378C80.6428 67.6337 77.0358 71.2826 72.5914 71.2826Z" fill="#5B9337"/>
<path opacity="0.83" d="M74.4577 71.0677C78.7843 70.0286 81.459 65.6382 80.4318 61.2614C79.4046 56.8847 75.0645 54.179 70.7379 55.2181C66.4113 56.2571 63.7366 60.6475 64.7638 65.0243C65.791 69.4011 70.1311 72.1068 74.4577 71.0677Z" fill="#FCECC5"/>
<path opacity="0.52" d="M72.5914 63.0076V55.6447C72.5914 55.6447 70.4659 55.3841 69.4353 56.4918L72.5914 63.0076Z" fill="#F7C257"/>
<path opacity="0.52" d="M72.4626 63.0727L68.8555 56.7524C68.8555 56.7524 66.9232 57.5995 66.5367 59.033L72.4626 63.0727Z" fill="#F7C257"/>
<path opacity="0.52" d="M72.3982 63.1378L66.1503 59.489C66.1503 59.489 64.8621 61.2483 65.313 62.6166L72.3982 63.1378Z" fill="#F7C257"/>
<path opacity="0.52" d="M72.3982 63.2682H65.1197C65.1197 63.2682 64.8621 65.4184 65.9571 66.4609L72.3982 63.2682Z" fill="#F7C257"/>
<path opacity="0.52" d="M72.4626 63.3986L66.2147 67.0474C66.2147 67.0474 67.052 69.0021 68.4691 69.3931L72.4626 63.3986Z" fill="#F7C257"/>
<path opacity="0.52" d="M72.5914 63.4636L68.9844 69.7839C68.9844 69.7839 70.7235 71.0871 72.0761 70.631L72.5914 63.4636Z" fill="#F7C257"/>
<path opacity="0.52" d="M72.6558 63.4636V70.8264C72.6558 70.8264 74.7814 71.0871 75.812 69.9794L72.6558 63.4636Z" fill="#F7C257"/>
<path opacity="0.52" d="M72.7846 63.3986L76.3917 69.7189C76.3917 69.7189 78.324 68.8718 78.7105 67.4383L72.7846 63.3986Z" fill="#F7C257"/>
<path opacity="0.52" d="M72.8491 63.3334L79.0969 66.9822C79.0969 66.9822 80.3852 65.223 79.9343 63.8546L72.8491 63.3334Z" fill="#F7C257"/>
<path opacity="0.52" d="M72.8491 63.203H80.1275C80.1275 63.203 80.3852 61.0528 79.2902 60.0103L72.8491 63.203Z" fill="#F7C257"/>
<path opacity="0.52" d="M72.7846 63.0728L79.0325 59.4239C79.0325 59.4239 78.1952 57.4692 76.7781 57.0782L72.7846 63.0728Z" fill="#F7C257"/>
<path opacity="0.52" d="M72.7202 63.0076L76.3272 56.6873C76.3272 56.6873 74.5881 55.3841 73.2355 55.8402L72.7202 63.0076Z" fill="#F7C257"/>
<path d="M73.2999 63.1379C73.2999 63.5289 72.9779 63.7895 72.6558 63.7895C72.2694 63.7895 72.0117 63.4637 72.0117 63.1379C72.0117 62.747 72.3338 62.4863 72.6558 62.4863C72.9779 62.4863 73.2999 62.8121 73.2999 63.1379Z" fill="#FCECC5"/>
<path d="M64.3468 65.2882C60.0957 65.223 56.5531 68.6112 56.4886 72.9116C56.4242 77.212 59.7736 80.7957 64.0248 80.8609C68.2759 80.926 71.8185 77.5378 71.8829 73.2374C71.9473 68.937 68.5335 65.3533 64.3468 65.2882ZM64.0248 80.4699C59.9669 80.4048 56.7463 77.0166 56.8107 72.9116C56.8751 68.8067 60.2245 65.5488 64.2824 65.6139C68.3403 65.6791 71.5609 69.0673 71.4965 73.1722C71.432 77.2772 68.0827 80.5351 64.0248 80.4699Z" fill="#5B9337"/>
<path opacity="0.83" d="M71.4279 74.1099C72.0127 70.0502 69.2334 66.2796 65.2203 65.688C61.2071 65.0964 57.4797 67.9079 56.8949 71.9676C56.3101 76.0273 59.0894 79.7979 63.1026 80.3895C67.1158 80.981 70.8431 78.1696 71.4279 74.1099Z" fill="#FCECC5"/>
<path opacity="0.52" d="M64.1536 72.9116L64.2824 66.2004C64.2824 66.2004 62.35 65.9397 61.3839 66.9171L64.1536 72.9116Z" fill="#F7C257"/>
<path opacity="0.52" d="M64.0247 72.9767L60.8042 67.1125C60.8042 67.1125 59.0006 67.8944 58.6786 69.1324L64.0247 72.9767Z" fill="#F7C257"/>
<path opacity="0.52" d="M63.9603 73.0419L58.2921 69.5885C58.2921 69.5885 57.1327 71.1523 57.4548 72.4554L63.9603 73.0419Z" fill="#F7C257"/>
<path opacity="0.52" d="M63.9603 73.1722L57.326 73.0419C57.326 73.0419 57.0683 74.9966 58.0345 75.974L63.9603 73.1722Z" fill="#F7C257"/>
<path opacity="0.52" d="M64.0247 73.2374L58.2277 76.4953C58.2277 76.4953 59.0007 78.3197 60.2245 78.6455L64.0247 73.2374Z" fill="#F7C257"/>
<path opacity="0.52" d="M64.0891 73.3025L60.6754 79.0364C60.6754 79.0364 62.2212 80.2092 63.5094 79.8834L64.0891 73.3025Z" fill="#F7C257"/>
<path opacity="0.52" d="M64.218 73.3677L64.0891 80.0789C64.0891 80.0789 66.0215 80.3396 66.9876 79.3622L64.218 73.3677Z" fill="#F7C257"/>
<path opacity="0.52" d="M64.2824 73.3025L67.5029 79.1667C67.5029 79.1667 69.3064 78.3848 69.6285 77.1468L64.2824 73.3025Z" fill="#F7C257"/>
<path opacity="0.52" d="M64.3468 73.1722L70.015 76.6256C70.015 76.6256 71.1744 75.0618 70.8523 73.7587L64.3468 73.1722Z" fill="#F7C257"/>
<path opacity="0.52" d="M64.4112 73.1071L71.0455 73.2374C71.0455 73.2374 71.3032 71.2827 70.337 70.3053L64.4112 73.1071Z" fill="#F7C257"/>
<path opacity="0.52" d="M64.3468 72.9768L70.1438 69.7189C70.1438 69.7189 69.3709 67.8945 68.1471 67.5687L64.3468 72.9768Z" fill="#F7C257"/>
<path opacity="0.52" d="M64.218 72.9117L67.6318 67.1778C67.6318 67.1778 66.0859 66.0049 64.7977 66.3307L64.218 72.9117Z" fill="#F7C257"/>
<path d="M64.7977 73.0419C64.7977 73.3677 64.54 73.6283 64.218 73.6283C63.8959 73.6283 63.6383 73.3677 63.6383 73.0419C63.6383 72.7161 63.8959 72.4554 64.218 72.4554C64.54 72.4554 64.7977 72.7161 64.7977 73.0419Z" fill="#FCECC5"/>
</g>
<defs>
<clipPath id="clip0_55_553">
<rect width="99" height="95" fill="white"/>
</clipPath>
</defs>
</svg>
