<svg width="137" height="131" viewBox="0 0 137 131" fill="none" xmlns="http://www.w3.org/2000/svg">
<g clip-path="url(#clip0_36_272)">
<path opacity="0.4" d="M118.131 111.944C143.333 86.5406 143.333 45.3531 118.131 19.9495C92.9295 -5.4542 52.0696 -5.4542 26.8679 19.9495C1.66625 45.3531 1.66625 86.5406 26.8679 111.944C52.0696 137.348 92.9295 137.348 118.131 111.944Z" fill="#6D8199"/>
<path d="M71.1295 127.226C105.983 127.226 134.237 98.7458 134.237 63.6132C134.237 28.4806 105.983 0 71.1295 0C36.2763 0 8.02216 28.4806 8.02216 63.6132C8.02216 98.7458 36.2763 127.226 71.1295 127.226Z" fill="#F8F8FA"/>
<path d="M71.1295 125.519C105.047 125.519 132.543 97.8029 132.543 63.6132C132.543 29.4234 105.047 1.70715 71.1295 1.70715C37.2116 1.70715 9.7157 29.4234 9.7157 63.6132C9.7157 97.8029 37.2116 125.519 71.1295 125.519Z" fill="#E8E5D6"/>
<path d="M71.1295 121.746C102.98 121.746 128.8 95.7188 128.8 63.6132C128.8 31.5076 102.98 5.4808 71.1295 5.4808C39.2792 5.4808 13.4594 31.5076 13.4594 63.6132C13.4594 95.7188 39.2792 121.746 71.1295 121.746Z" fill="#CCBEAC"/>
<path d="M71.3077 119.589C101.681 119.589 126.304 94.7692 126.304 64.1523C126.304 33.5353 101.681 8.71536 71.3077 8.71536C40.9342 8.71536 16.3116 33.5353 16.3116 64.1523C16.3116 94.7692 40.9342 119.589 71.3077 119.589Z" fill="#D6460D"/>
<path d="M23.5316 66.9376C23.5316 36.299 48.1327 11.5007 78.5277 11.5007C83.9649 11.5007 89.2238 12.3093 94.1262 13.7469C87.1737 10.6022 79.419 8.71536 71.3077 8.71536C40.9128 8.71536 16.3116 33.5137 16.3116 64.1523C16.3116 89.31 32.8907 110.514 55.7092 117.343C36.7235 108.628 23.5316 89.31 23.5316 66.9376Z" fill="#BC3C0F"/>
<path d="M126.304 64.1523C126.304 41.7798 113.112 22.4623 94.1262 13.7469C89.1347 12.3093 83.9649 11.5007 78.5276 11.5007C48.1327 11.5007 23.5316 36.299 23.5316 66.9376C23.5316 89.31 36.7235 108.628 55.7092 117.343C60.7007 118.781 65.8705 119.589 71.3077 119.589C101.614 119.589 126.304 94.7908 126.304 64.1523Z" fill="#D6460D"/>
<path d="M95.0175 19.5871C95.0175 20.845 93.8588 21.9232 92.3435 21.9232C90.8282 21.9232 89.6694 20.845 89.6694 19.5871C89.6694 18.3292 90.8282 17.251 92.3435 17.251C93.8588 17.251 95.0175 18.3292 95.0175 19.5871Z" fill="#E55523"/>
<path d="M121.312 73.1372C121.312 74.1255 120.421 74.9341 119.262 74.9341C118.104 74.9341 117.212 74.1255 117.212 73.1372C117.212 72.1488 118.104 71.3402 119.262 71.3402C120.421 71.3402 121.312 72.1488 121.312 73.1372Z" fill="#E55523"/>
<path d="M30.484 79.4266C30.484 80.415 29.5927 81.2236 28.4339 81.2236C27.2752 81.2236 26.3839 80.415 26.3839 79.4266C26.3839 78.4383 27.2752 77.6296 28.4339 77.6296C29.5927 77.6296 30.484 78.4383 30.484 79.4266Z" fill="#E55523"/>
<path d="M87.7086 22.2826C87.7086 23.5405 86.5498 24.6187 85.0345 24.6187C83.5192 24.6187 82.3605 23.5405 82.3605 22.2826C82.3605 21.0247 83.5192 19.9465 85.0345 19.9465C86.5498 19.9465 87.7086 20.9348 87.7086 22.2826Z" fill="#E55523"/>
<path d="M106.783 101.17C106.783 102.158 105.892 102.967 104.733 102.967C103.574 102.967 102.683 102.158 102.683 101.17C102.683 100.182 103.574 99.3731 104.733 99.3731C105.892 99.3731 106.783 100.182 106.783 101.17Z" fill="#E55523"/>
<path d="M67.8315 113.749C67.8315 114.737 66.9402 115.546 65.7814 115.546C64.6227 115.546 63.7313 114.737 63.7313 113.749C63.7313 112.761 64.6227 111.952 65.7814 111.952C66.9402 111.862 67.8315 112.671 67.8315 113.749Z" fill="#E55523"/>
<path d="M54.1048 101.619C54.1048 102.608 53.2134 103.416 52.0547 103.416C50.8959 103.416 50.0046 102.608 50.0046 101.619C50.0046 100.631 50.8959 99.8224 52.0547 99.8224C53.2134 99.8224 54.1048 100.541 54.1048 101.619Z" fill="#E55523"/>
<path d="M115.073 38.4554C115.073 39.4438 114.182 40.2524 113.023 40.2524C111.864 40.2524 110.973 39.4438 110.973 38.4554C110.973 37.4671 111.864 36.6584 113.023 36.6584C114.182 36.6584 115.073 37.4671 115.073 38.4554Z" fill="#E55523"/>
<path d="M39.1301 44.655C39.1301 45.6434 38.2388 46.452 37.08 46.452C35.9213 46.452 35.0299 45.6434 35.0299 44.655C35.0299 43.6667 35.9213 42.858 37.08 42.858C38.2388 42.858 39.1301 43.6667 39.1301 44.655Z" fill="#E55523"/>
<path d="M121.847 53.3704C121.847 55.4369 119.975 57.0542 117.658 57.0542C115.34 57.0542 113.469 55.4369 113.469 53.3704C113.469 51.3038 115.34 49.6866 117.658 49.6866C119.975 49.6866 121.847 51.3038 121.847 53.3704Z" fill="#E55523"/>
<path d="M48.7567 103.686C48.7567 105.483 47.0631 106.92 45.1022 106.92C43.0521 106.92 41.4476 105.483 41.4476 103.686C41.4476 101.889 43.1412 100.451 45.1022 100.451C47.0631 100.451 48.7567 101.889 48.7567 103.686Z" fill="#E55523"/>
<path d="M100.366 96.5878C100.366 98.6543 98.4047 100.451 95.9981 100.451C93.5915 100.451 91.6305 98.7442 91.6305 96.5878C91.6305 94.5213 93.5915 92.7243 95.9981 92.7243C98.4939 92.7243 100.366 94.4314 100.366 96.5878Z" fill="#E55523"/>
<path d="M57.4027 79.2469C59.0071 82.3018 57.4027 86.345 53.8373 88.3217C50.1828 90.2984 45.9935 89.4897 44.2999 86.4349C42.6955 83.38 44.2999 79.3368 47.8653 77.3601C51.5198 75.4733 55.7983 76.2819 57.4027 79.2469Z" fill="#B2864B"/>
<path d="M57.581 79.6063C59.0963 82.3917 57.4027 86.2552 53.7482 88.2318C50.0936 90.2085 45.9935 89.5796 44.4782 86.7943C42.9629 84.0089 44.6564 80.1454 48.311 78.1687C51.9655 76.1921 56.1548 76.821 57.581 79.6063Z" fill="#EFD4AC"/>
<path d="M51.3416 83.6495L52.0546 82.9308C52.0546 82.9308 55.4417 82.0323 57.581 84.1886C57.581 84.1886 56.957 86.345 54.6395 87.7826L51.3416 83.6495Z" fill="#B79363"/>
<path d="M51.2524 83.7394L50.272 83.9191C50.272 83.9191 47.7762 86.2552 48.4001 89.31C48.4001 89.31 50.5394 89.939 52.946 88.7709L51.2524 83.7394Z" fill="#B79363"/>
<path d="M52.0546 82.9308L51.0741 83.2901L50.1828 83.9191L53.9265 92.0055C54.283 92.904 55.3526 93.1735 56.1548 92.7243C56.957 92.2751 57.2244 91.1969 56.7788 90.3882L52.0546 82.9308Z" fill="#EFD4AC"/>
<path d="M109.725 46.452C106.427 46.2723 103.842 42.858 104.109 38.725C104.288 34.6818 107.229 31.537 110.527 31.7167C113.825 31.8964 116.41 35.3107 116.142 39.4438C115.875 43.487 113.023 46.6317 109.725 46.452Z" fill="#B2864B"/>
<path d="M109.279 46.452C106.159 46.2723 103.842 42.858 104.109 38.8148C104.377 34.7716 106.962 31.6269 110.081 31.7168C113.201 31.8965 115.518 35.3107 115.251 39.3539C115.073 43.3971 112.399 46.6317 109.279 46.452Z" fill="#EFD4AC"/>
<path d="M109.19 39.0844L109.457 40.0727C109.457 40.0727 108.477 43.3073 105.535 44.0261C105.535 44.0261 104.02 42.3189 104.02 39.7133L109.19 39.0844Z" fill="#B79363"/>
<path d="M109.19 38.9945L109.546 38.096C109.546 38.096 108.923 34.7716 106.07 33.6934C106.07 33.6934 104.466 35.131 104.198 37.7366L109.19 38.9945Z" fill="#B79363"/>
<path d="M109.457 40.0727L109.636 39.0844L109.546 38.0062L100.99 37.0179C100.098 36.928 99.296 37.5569 99.2069 38.5453C99.1177 39.4438 99.9199 40.2524 100.811 40.2524L109.457 40.0727Z" fill="#EFD4AC"/>
<path d="M26.3838 68.7346C26.8295 65.4101 30.3949 63.1639 34.406 63.6132C38.417 64.1523 41.2693 67.297 40.9128 70.6214C40.4671 73.9458 36.9017 76.192 32.8907 75.7428C28.8796 75.2037 25.9382 72.059 26.3838 68.7346Z" fill="#B2864B"/>
<path d="M40.9 70.2326C41.2991 67.1323 38.3775 64.1946 34.3743 63.6709C30.3711 63.1472 26.8023 65.2359 26.4032 68.3362C26.0041 71.4364 28.9257 74.3742 32.9289 74.8979C36.932 75.4216 40.5008 73.3329 40.9 70.2326Z" fill="#EFD4AC"/>
<path d="M33.6929 68.8244L32.7124 69.0041C32.7124 69.0041 29.5927 67.7462 29.0579 64.7812C29.0579 64.7812 30.8406 63.4335 33.4255 63.6132L33.6929 68.8244Z" fill="#B79363"/>
<path d="M33.782 68.8244L34.6734 69.2737C34.6734 69.2737 38.0605 68.8244 39.3084 66.1289C39.3084 66.1289 37.9714 64.4218 35.3865 63.8827L33.782 68.8244Z" fill="#B79363"/>
<path d="M32.7124 69.0041L33.6929 69.2737H34.7625L36.4561 60.738C36.6343 59.8395 36.0104 58.941 35.119 58.8512C34.2277 58.7613 33.4255 59.3903 33.3363 60.3786L32.7124 69.0041Z" fill="#EFD4AC"/>
<path d="M47.5088 77.1804C48.9349 71.6996 50.3611 65.5 47.5979 60.5583C46.0826 57.773 43.4086 55.8861 40.8237 53.9993C39.041 52.7414 36.9909 51.3937 34.9408 52.0226C33.2472 52.5617 32.0885 54.2689 31.6428 55.976C30.7515 59.3004 31.8211 62.9842 34.2277 65.3203C36.5452 67.5665 40.1106 68.9143 40.7345 72.059C41.0911 73.9458 40.1997 75.7428 39.7541 77.5398C39.2192 79.3368 39.2192 81.6728 40.8237 82.751C42.2498 83.7394 44.2999 83.1104 45.5478 81.8525C46.5283 80.5947 47.0631 78.8875 47.5088 77.1804Z" fill="#D6460D"/>
<path d="M41.2694 92.9938C39.041 89.31 38.4171 84.4582 40.1998 80.5048C41.9825 76.5514 46.5283 73.856 50.7177 74.8443C47.7762 77.8093 46.974 82.751 48.8458 86.4348C49.5589 87.7826 50.5394 88.9506 51.2525 90.2984C51.9655 91.6461 52.4112 93.2634 51.9655 94.701C51.2525 96.8573 48.5784 97.9355 46.3501 97.3066C44.1217 96.8573 42.4281 94.9705 41.2694 92.9938Z" fill="#D6460D"/>
<path d="M46.8848 47.62C43.5868 47.4403 41.0019 44.0261 41.2693 39.893C41.4476 35.8498 44.389 32.7051 47.687 32.8848C50.985 33.0645 53.5699 36.4787 53.3025 40.6118C53.1242 44.655 50.2719 47.7997 46.8848 47.62Z" fill="#B2864B"/>
<path d="M46.5283 47.62C43.4086 47.4403 41.0911 44.0261 41.3585 39.9829C41.5367 35.9397 44.2108 32.7949 47.3305 32.8848C50.4502 33.0645 52.7677 36.4787 52.5003 40.522C52.2329 44.655 49.5589 47.7997 46.5283 47.62Z" fill="#EFD4AC"/>
<path d="M46.4392 40.3423L46.7066 41.3306C46.7066 41.3306 45.7261 44.5652 42.7846 45.284C42.7846 45.284 41.2693 43.5768 41.2693 40.9712L46.4392 40.3423Z" fill="#B79363"/>
<path d="M46.4392 40.1625L46.7957 39.2641C46.7957 39.2641 46.1718 35.9396 43.3195 34.8615C43.3195 34.8615 41.715 36.299 41.4476 38.9047L46.4392 40.1625Z" fill="#B79363"/>
<path d="M46.7066 41.2407L46.8848 40.2524L46.7957 39.2641L38.2388 38.2757C37.3474 38.1859 36.5452 38.8148 36.4561 39.8032C36.3669 40.7017 37.1691 41.5103 38.0605 41.5103L46.7066 41.2407Z" fill="#EFD4AC"/>
<path d="M51.4307 103.686C52.7677 100.631 56.8679 99.463 60.5224 101.08C64.177 102.698 66.1379 106.561 64.8009 109.616C63.4639 112.671 59.3637 113.839 55.7092 112.222C51.9655 110.604 50.0937 106.741 51.4307 103.686Z" fill="#B2864B"/>
<path d="M51.609 103.326C52.8568 100.451 56.8679 99.5528 60.5224 101.17C64.177 102.787 66.227 106.471 64.9792 109.257C63.7313 112.132 59.7202 113.03 56.0657 111.413C52.322 109.796 50.3611 106.202 51.609 103.326Z" fill="#EFD4AC"/>
<path d="M58.3832 105.842L57.4027 105.752C57.4027 105.752 54.7287 103.596 55.0852 100.631C55.0852 100.631 57.1353 99.8224 59.6311 100.721L58.3832 105.842Z" fill="#B79363"/>
<path d="M58.4724 105.932L59.1854 106.561C59.1854 106.561 62.4834 107.1 64.4444 104.854C64.4444 104.854 63.6422 102.877 61.3247 101.619L58.4724 105.932Z" fill="#B79363"/>
<path d="M57.4027 105.752L58.2941 106.292L59.2745 106.561L63.2856 98.834C63.7313 98.0254 63.3747 97.037 62.4834 96.5878C61.6812 96.2284 60.7007 96.5878 60.3442 97.4863L57.4027 105.752Z" fill="#EFD4AC"/>
<path d="M89.1347 24.1694C90.3826 27.404 88.2433 31.1777 84.4105 32.7051C80.5778 34.2325 76.4776 32.8848 75.2297 29.6502C73.9818 26.4156 76.121 22.642 79.9538 21.1146C83.7866 19.677 87.8868 21.0247 89.1347 24.1694Z" fill="#B2864B"/>
<path d="M89.313 24.5288C90.4717 27.4938 88.3325 31.0878 84.4997 32.6152C80.6669 34.1427 76.6558 32.9746 75.4971 30.0096C74.3383 27.0446 76.4776 23.4506 80.3104 21.9232C84.054 20.4856 88.1542 21.5638 89.313 24.5288Z" fill="#EFD4AC"/>
<path d="M82.6279 27.7634L83.4301 27.1344C83.4301 27.1344 86.8172 26.6852 88.7782 29.1111C88.7782 29.1111 87.8868 31.1776 85.391 32.3457L82.6279 27.7634Z" fill="#B79363"/>
<path d="M82.4496 27.7634L81.4691 27.8532C81.4691 27.8532 78.7059 29.9198 78.8842 32.9746C78.8842 32.9746 80.9343 33.8731 83.4301 32.9746L82.4496 27.7634Z" fill="#B79363"/>
<path d="M83.3409 27.1344L82.3605 27.404L81.4691 27.9431L84.1432 36.3889C84.4106 37.2874 85.391 37.7366 86.2824 37.3772C87.1737 37.0178 87.5303 36.0295 87.1737 35.131L83.3409 27.1344Z" fill="#EFD4AC"/>
<path d="M115.073 36.1193C114.271 36.7483 113.201 36.928 112.221 37.0178C106.962 37.7366 101.97 39.3539 96.8003 40.4321C91.6305 41.5103 86.1041 41.8697 81.2017 40.0727C76.2993 38.2757 72.0208 33.8731 71.9317 28.7517C74.6949 31.8066 79.3299 33.1543 83.4301 32.0761C86.1041 31.3573 88.5108 29.74 91.1848 29.3807C94.3045 29.0213 97.4242 30.4588 100.544 30.6385C104.555 30.9081 108.744 29.1111 112.577 30.2791C113.825 30.6385 114.984 31.4472 115.608 32.6152C116.232 33.6934 116.053 35.2208 115.073 36.1193Z" fill="#D6460D"/>
<path d="M98.2264 50.7647L89.2238 53.8196L85.2128 58.5816L90.4717 55.4369L101.257 53.8196L98.2264 50.7647Z" fill="#FC9E40"/>
<path d="M99.6526 57.4136L90.1152 57.9527L85.0345 61.4568L90.9174 59.8395L101.792 61.0974L99.6526 57.4136Z" fill="#FC9E40"/>
<path d="M100.811 64.8711L91.8978 61.3669L85.8367 62.4451L91.8087 63.4335L101.257 69.094L100.811 64.8711Z" fill="#FC9E40"/>
<path d="M96.7112 70.8011L88.8673 65.3203L82.6279 65.0508L88.3325 67.3868L96.1763 75.024L96.7112 70.8011Z" fill="#FC9E40"/>
<path d="M91.7196 46.0027L84.4997 52.2922L82.6279 58.2222L86.2824 53.3704L95.7307 47.7099L91.7196 46.0027Z" fill="#FC9E40"/>
<path d="M21.9272 24.1694C24.9577 36.8381 33.7821 47.4403 45.637 52.6516C58.1158 58.0425 73.0013 56.1557 84.1432 48.5185C85.0345 47.8896 84.2323 46.5418 83.341 47.0809C72.2883 54.6282 57.9376 56.1557 45.637 50.8546C34.4951 46.0027 26.2948 35.4904 23.5316 23.81C23.2642 22.7318 21.6598 23.181 21.9272 24.1694Z" fill="#DB6D17"/>
<path d="M84.2323 75.2037C84.2323 75.2037 72.11 69.2737 63.6422 68.6447C63.6422 68.6447 74.784 77.0007 85.4802 77.4499L84.2323 75.2037Z" fill="#DB6D17"/>
<path d="M84.1431 76.4616C84.1431 76.4616 71.5752 71.5199 63.1074 71.5199C63.1074 71.5199 74.9623 78.9773 85.6584 78.6179L84.1431 76.4616Z" fill="#DB6D17"/>
<path d="M86.7281 78.3484C86.7281 78.3484 73.7144 74.5747 65.3358 75.3834C65.3358 75.3834 77.9929 81.7627 88.5108 80.3251L86.7281 78.3484Z" fill="#DB6D17"/>
<path d="M88.1542 80.3251C88.1542 80.3251 77.4581 78.1687 70.7729 79.3367C70.7729 79.3367 81.38 83.5596 89.6695 81.7627L88.1542 80.3251Z" fill="#DB6D17"/>
<path d="M97.7807 66.4883C94.1262 70.8011 89.0455 73.7661 83.5192 74.7544C83.9648 78.1687 83.6083 78.9773 85.4801 81.8525C90.2934 84.0089 96.8002 84.6378 101.524 83.2002C106.249 81.6728 110.794 78.7078 113.112 74.3052C108.477 71.0706 103.129 68.5548 97.7807 66.4883Z" fill="#EA8329"/>
<path d="M85.5693 74.3052C84.8562 74.4849 84.2322 74.6646 83.5192 74.7544C83.9648 78.1687 83.6083 78.9773 85.4801 81.8525C89.1347 83.4698 93.6805 84.2784 97.7807 83.919C94.3045 83.4698 90.9173 82.5713 87.9759 81.2236C86.0149 78.1687 85.8367 76.821 85.5693 74.3052Z" fill="#D36A18"/>
<path d="M89.9369 79.8759C88.1542 77.1804 87.6194 75.6529 87.352 73.7661C86.8172 73.9458 86.1933 74.1255 85.6584 74.3052C85.9259 76.821 86.1041 78.1687 88.0651 81.2236C91.0065 82.5713 94.3936 83.4698 97.8699 83.9191C99.2069 83.8292 100.455 83.5597 101.614 83.2003C102.059 83.0206 102.505 82.9307 103.04 82.751C102.416 82.8409 101.881 82.9307 101.257 83.0206C97.246 82.4815 93.324 81.4033 89.9369 79.8759Z" fill="#EA8329"/>
<path d="M113.201 74.3052C108.477 71.1605 103.129 68.6447 97.7808 66.5782C95.0176 69.9026 91.3631 72.4184 87.3521 73.856C87.6195 75.7428 88.1543 77.2702 89.937 79.9657C93.3241 81.4931 97.246 82.5713 101.168 83.0206C101.792 82.9307 102.416 82.8409 102.951 82.751C107.229 81.1337 111.151 78.2586 113.201 74.3052Z" fill="#F99A4F"/>
<path d="M115.519 65.9492C117.212 70.1722 114.627 75.5631 111.686 78.9774C105.268 78.5281 98.7612 74.4849 95.9089 68.7346C97.4242 66.668 98.7612 64.4218 100.277 62.4451C104.02 65.4101 110.705 66.3086 115.519 65.9492Z" fill="#F99A4F"/>
<path d="M114.716 53.4602C118.104 56.5151 118.193 62.4451 117.123 66.8477C111.24 69.3635 103.664 68.7345 98.4939 64.871C98.9396 62.3553 99.1178 59.7496 99.5635 57.2339C104.199 58.2222 110.616 55.976 114.716 53.4602Z" fill="#F99A4F"/>
<path d="M109.19 42.2291C113.558 43.487 116.143 48.8779 117.034 53.3704C112.755 58.2222 105.625 60.8278 99.2961 59.5699C98.583 57.144 97.6917 54.6282 97.0677 52.2023C101.614 50.9444 106.516 46.2723 109.19 42.2291Z" fill="#F99A4F"/>
<path d="M102.148 37.3772C106.694 37.467 111.062 40.2524 113.112 44.2956C110.26 50.1358 104.109 54.6282 97.6916 55.0775C96.3546 52.9211 94.8393 50.7647 93.5914 48.6083C97.7808 46.2723 100.722 41.9595 102.148 37.3772Z" fill="#EA8329"/>
<path d="M112.666 43.487C109.725 49.2373 103.575 53.6399 97.246 54.2689C97.4242 54.5384 97.6025 54.808 97.7808 55.0775C104.198 54.6283 110.349 50.046 113.201 44.2956C113.023 44.0261 112.845 43.7565 112.666 43.487Z" fill="#D36A18"/>
<path d="M112.666 43.4869C111.953 42.3189 111.062 41.2407 109.992 40.3422C107.586 46.2723 102.505 51.3038 96.5328 53.1906C96.8002 53.55 97.0676 53.9993 97.2459 54.3587C103.574 53.6399 109.725 49.2373 112.666 43.4869Z" fill="#EA8329"/>
<path d="M109.992 40.3422C107.853 38.5452 105.001 37.467 102.237 37.3772C100.811 41.9595 97.8699 46.2723 93.6805 48.6982C94.5719 50.2256 95.6415 51.6632 96.5329 53.1906C102.505 51.3038 107.586 46.1824 109.992 40.3422Z" fill="#F99A4F"/>
<path d="M91.7196 34.8614C95.7307 34.2325 99.92 34.7716 103.664 36.3889C104.288 39.5336 103.485 42.4986 102.059 45.3738C100.633 48.2489 98.1373 50.4952 95.285 51.8429C92.611 50.585 89.8478 48.788 87.5303 46.9012C89.6695 43.2174 90.7391 38.9945 91.7196 34.8614Z" fill="#F99A4F"/>
<path d="M91.8979 49.5068C88.3325 44.655 85.2128 38.6351 79.3299 37.6468C76.121 37.1077 72.8231 37.9163 69.5251 38.3655C62.3943 39.264 55.0853 37.9163 48.7567 34.6817C48.935 35.0411 49.1132 35.3107 49.2915 35.6701C48.7567 35.8498 48.2219 36.1193 47.6871 36.299C52.1438 39.1742 57.2245 41.061 61.5921 43.9362C64.8009 46.0027 68.4555 48.8779 72.11 49.9561C79.2408 52.0226 83.8758 50.7647 91.8979 49.5068Z" fill="#EA8329"/>
<path d="M92.1653 34.3223C85.0345 32.9746 77.7255 33.4238 70.5056 33.334C63.2857 33.2441 55.8875 32.5254 49.4698 29.1111C49.6481 29.3806 49.2915 29.2908 49.4698 29.5603C49.0241 29.4705 48.4893 29.3806 48.0436 29.3806C50.8959 35.8498 57.4919 40.5219 64.5336 41.061C71.6643 47.9794 82.0039 51.1241 91.8088 49.5967C93.8589 47.5302 94.9285 45.5535 95.1959 42.5885C95.4633 39.7133 93.7697 36.7483 92.1653 34.3223Z" fill="#FFA353"/>
<path d="M64.7118 35.4904C64.7118 36.7483 63.6422 37.8264 62.3943 37.8264C61.1464 37.8264 60.0768 36.7483 60.0768 35.4904C60.0768 34.2325 61.1464 33.1543 62.3943 33.1543C63.7313 33.1543 64.7118 34.1426 64.7118 35.4904Z" fill="#443225"/>
<path d="M63.2857 34.9513C63.2857 35.5802 62.84 36.0295 62.216 36.0295C61.5921 36.0295 61.1464 35.5802 61.1464 34.9513C61.1464 34.3224 61.5921 33.8731 62.216 33.8731C62.84 33.963 63.2857 34.4122 63.2857 34.9513Z" fill="#82604E"/>
<path d="M34.1386 13.2977C33.069 24.6186 37.7931 35.8498 46.5283 43.1276C55.2635 50.3155 67.7424 52.1125 78.3494 48.5185C79.3299 48.1591 78.8842 46.6317 77.9037 46.9012C67.8315 50.3155 56.9571 48.6084 48.311 42.4088C39.3084 35.9396 34.7626 24.1694 35.8322 13.2977C35.9213 12.2195 34.2277 12.2195 34.1386 13.2977Z" fill="#DB6D17"/>
<path d="M103.664 36.3889C100.99 35.2208 100.009 35.0411 98.1373 34.6817C99.4744 37.8265 97.7808 43.6666 93.4132 50.8546C94.0372 51.214 94.572 51.4835 95.1959 51.7531C98.0482 50.4053 100.544 48.1591 101.97 45.2839C103.485 42.4986 104.288 39.5336 103.664 36.3889Z" fill="#EA8329"/>
<path d="M103.664 36.3889C103.575 36.299 103.396 36.299 103.307 36.2092C103.485 39.0843 102.594 41.8697 101.257 44.4753C99.7418 47.4403 97.3351 49.8662 94.3937 51.3937C94.6611 51.5734 94.9285 51.6632 95.285 51.8429C98.1373 50.4952 100.633 48.2489 102.059 45.3738C103.485 42.4986 104.288 39.5336 103.664 36.3889Z" fill="#D36A18"/>
<path d="M99.0287 58.8512C99.1178 59.0309 99.1178 59.3004 99.207 59.4801C105.536 60.738 112.666 58.1324 116.945 53.2805C116.856 52.9211 116.766 52.5617 116.677 52.2922C112.221 56.7846 105.446 59.3903 99.0287 58.8512Z" fill="#D36A18"/>
<path d="M116.766 52.2922C116.766 52.1125 116.677 51.9328 116.677 51.7531C112.042 56.2455 105.09 58.6715 98.7612 57.6831C98.8504 58.0425 99.0286 58.4019 99.1178 58.8512C105.446 59.3903 112.221 56.7846 116.766 52.2922Z" fill="#EA8329"/>
<path d="M98.583 64.0624C98.583 64.332 98.4939 64.6914 98.4939 64.9609C103.664 68.8244 111.24 69.4534 117.123 66.9376C117.212 66.4883 117.301 66.0391 117.39 65.5898C111.508 67.9259 104.02 67.4767 98.583 64.0624Z" fill="#D36A18"/>
<path d="M98.8504 62.4451C98.7613 62.9842 98.6721 63.5233 98.6721 64.0624C104.109 67.4767 111.508 67.9259 117.48 65.5C117.569 64.8711 117.658 64.1523 117.747 63.4335C111.686 65.6797 104.555 65.3203 98.8504 62.4451Z" fill="#EA8329"/>
<path d="M96.7111 67.5665C96.4437 67.9259 96.1763 68.3752 95.9089 68.7346C98.7612 74.4849 105.268 78.5281 111.686 78.9774C112.042 78.5281 112.399 78.0789 112.755 77.6296C106.338 76.7311 100.098 72.9575 96.7111 67.5665Z" fill="#D36A18"/>
<path d="M97.5134 66.3086C97.246 66.7579 96.9786 67.1173 96.7112 67.4767C100.187 72.8676 106.338 76.7311 112.755 77.5398C113.201 77.0007 113.558 76.3717 113.914 75.7428C107.407 75.2037 101.079 71.6097 97.5134 66.3086Z" fill="#EA8329"/>
<path d="M76.3884 69.6331L67.2967 72.6879L63.3748 77.4499L68.6337 74.3052L79.419 72.5981L76.3884 69.6331Z" fill="#FC9E40"/>
<path d="M77.8146 76.192L68.2771 76.7311L63.1965 80.3251L69.0794 78.7078L79.8647 79.9657L77.8146 76.192Z" fill="#FC9E40"/>
<path d="M78.8842 83.6495L70.0598 80.2353L63.9095 81.3134L69.9707 82.3018L79.3298 87.9623L78.8842 83.6495Z" fill="#FC9E40"/>
<path d="M74.8731 89.5796L66.9402 84.1886L60.7899 83.9191L66.4053 86.1653L74.2492 93.8923L74.8731 89.5796Z" fill="#FC9E40"/>
<path d="M69.8816 64.871L62.6617 71.1605L60.7007 77.0905L64.4444 72.1488L73.8035 66.4883L69.8816 64.871Z" fill="#FC9E40"/>
<path d="M8.78889e-06 43.0377C3.03059 55.7064 11.9441 66.3086 23.799 71.43C36.2778 76.821 51.1633 74.9341 62.3051 67.297C63.1965 66.668 62.3943 65.3203 61.5029 65.8594C50.4502 73.4067 36.0996 74.9341 23.7098 69.633C12.568 64.7812 4.36761 54.3587 1.60443 42.5885C1.33703 41.5103 -0.178261 41.9595 8.78889e-06 43.0377Z" fill="#DB6D17"/>
<path d="M62.3051 94.072C62.3051 94.072 50.1828 88.142 41.715 87.513C41.715 87.513 52.8569 95.869 63.553 96.3182L62.3051 94.072Z" fill="#DB6D17"/>
<path d="M62.3051 95.3299C62.3051 95.3299 49.7371 90.3882 41.2693 90.3882C41.2693 90.3882 53.1243 97.8457 63.8204 97.4863L62.3051 95.3299Z" fill="#DB6D17"/>
<path d="M64.8009 97.1269C64.8009 97.1269 51.7872 93.3532 43.4086 94.1618C43.4086 94.1618 56.0657 100.541 66.5836 99.1035L64.8009 97.1269Z" fill="#DB6D17"/>
<path d="M66.2271 99.1036C66.2271 99.1036 55.5309 96.9472 48.8458 98.1152C48.8458 98.1152 59.4529 102.338 67.7424 100.541L66.2271 99.1036Z" fill="#DB6D17"/>
<path d="M75.9428 85.3566C72.2882 89.6694 67.2076 92.6344 61.6812 93.6227C62.1269 97.037 61.7704 97.8457 63.6422 100.721C68.4555 102.877 74.9623 103.506 79.6864 102.069C84.4106 100.541 88.9564 97.5761 91.2739 93.1735C86.5498 89.9389 81.2017 87.4232 75.9428 85.3566Z" fill="#EA8329"/>
<path d="M63.7313 93.1735C63.0182 93.3532 62.3943 93.5329 61.6812 93.6228C62.1269 97.037 61.7704 97.8457 63.6422 100.721C67.2967 102.338 71.8426 103.147 75.9428 102.787C72.4665 102.338 69.0794 101.44 66.1379 100.092C64.177 97.037 63.9987 95.6893 63.7313 93.1735Z" fill="#D36A18"/>
<path d="M68.0098 98.7442C66.2271 96.0487 65.6923 94.5213 65.4249 92.6344C64.8901 92.8141 64.2661 92.9938 63.7313 93.1735C63.9987 95.6893 64.177 97.037 66.138 100.092C69.0794 101.44 72.4665 102.338 75.9428 102.787C77.2798 102.698 78.5277 102.428 79.6864 102.069C80.1321 101.889 80.5778 101.799 81.1126 101.619C80.4886 101.709 79.9538 101.799 79.3299 101.889C75.3188 101.26 71.3969 100.272 68.0098 98.7442Z" fill="#EA8329"/>
<path d="M91.2739 93.0837C86.5498 89.9389 81.2017 87.4232 75.8536 85.3566C73.0904 88.681 69.4359 91.1968 65.4249 92.6344C65.6923 94.5212 66.2271 96.0487 68.0098 98.7441C71.3969 100.272 75.3188 101.35 79.2407 101.799C79.8647 101.709 80.4886 101.619 81.0234 101.529C85.391 99.9122 89.2238 97.1269 91.2739 93.0837Z" fill="#F99A4F"/>
<path d="M93.5914 84.7277C95.285 88.9506 92.7001 94.3415 89.7586 97.7558C83.341 97.3066 76.8341 93.2634 73.9818 87.513C75.4971 85.4465 76.8341 83.2003 78.3494 81.2236C82.0931 84.1886 88.7782 85.1769 93.5914 84.7277Z" fill="#F99A4F"/>
<path d="M92.8783 72.3285C96.2654 75.3834 96.3546 81.3134 95.285 85.716C89.4021 88.2318 81.8256 87.6029 76.6558 83.7394C77.1015 81.2236 77.2798 78.618 77.7254 76.1022C82.3604 77.0905 88.7781 74.8443 92.8783 72.3285Z" fill="#F99A4F"/>
<path d="M87.2629 61.0075C91.6305 62.2654 94.2154 67.6564 95.1067 72.1488C90.8283 77.0007 83.6975 79.6063 77.3689 78.3484C76.6559 75.9225 75.7645 73.4067 75.1406 70.9808C79.7756 69.8127 84.678 65.0507 87.2629 61.0075Z" fill="#F99A4F"/>
<path d="M80.3103 56.2455C84.8562 56.3354 89.2238 59.1207 91.2739 63.1639C88.4216 69.0041 82.2713 73.4966 75.8536 73.9458C74.5166 71.7894 73.0013 69.6331 71.7534 67.4767C75.8536 65.0508 78.8842 60.8278 80.3103 56.2455Z" fill="#EA8329"/>
<path d="M90.8283 62.3553C87.8868 68.1056 81.7365 72.5082 75.408 73.1372C75.5862 73.4067 75.7645 73.6763 75.9428 73.9458C82.3605 73.4966 88.5108 68.9143 91.3631 63.1639C91.0957 62.8045 90.9174 62.6248 90.8283 62.3553Z" fill="#D36A18"/>
<path d="M90.8283 62.3553C90.1152 61.1873 89.2238 60.1091 88.1542 59.2106C85.7476 65.1406 80.6669 70.1722 74.6949 72.059C74.9623 72.4184 75.2297 72.8676 75.408 73.227C81.7365 72.5082 87.7977 68.0158 90.8283 62.3553Z" fill="#EA8329"/>
<path d="M88.0651 59.1207C85.9258 57.3237 83.0735 56.2455 80.3103 56.1557C78.8842 60.738 75.9427 65.0508 71.7534 67.4767C72.6448 69.0041 73.7144 70.4417 74.6057 71.9691C80.5777 70.0823 85.7476 65.0508 88.0651 59.1207Z" fill="#F99A4F"/>
<path d="M69.8816 53.6399C73.8927 53.011 78.082 53.5501 81.8256 55.1673C82.4496 58.3121 81.6474 61.2771 80.2212 64.1522C78.7951 67.0274 76.2993 69.2736 73.447 70.6214C70.7729 69.3635 68.0098 67.5665 65.6923 65.6797C67.8315 61.9959 68.9011 57.8628 69.8816 53.6399Z" fill="#F99A4F"/>
<path d="M70.0599 68.2853C66.4945 63.4335 63.3748 57.4136 57.4919 56.4252C54.283 55.8861 50.985 56.6948 47.6871 57.144C40.5563 58.0425 33.2472 56.6948 26.9187 53.4602C27.0969 53.8196 27.2752 54.0891 27.4535 54.4485C26.9187 54.6282 26.3839 54.8978 25.8491 55.0775C30.3058 57.9527 35.3865 59.8395 39.7541 62.7147C42.9629 64.7812 46.6174 67.6564 50.272 68.7346C57.3136 70.8909 62.0377 69.5432 70.0599 68.2853Z" fill="#EA8329"/>
<path d="M70.3273 53.1008C63.1965 51.7531 55.8875 52.2023 48.6676 52.1125C41.4477 52.1125 33.9603 51.3937 27.6318 47.9794C27.8101 48.249 27.4535 48.1591 27.6318 48.4287C27.1861 48.3388 26.6513 48.249 26.2056 48.249C29.0579 54.7181 35.6539 59.3903 42.6955 59.9294C49.8263 66.8477 60.1659 69.9925 69.9708 68.465C72.0208 66.3985 73.0905 64.4218 73.3579 61.4568C73.5361 58.4918 71.9317 55.5268 70.3273 53.1008Z" fill="#FFA353"/>
<path d="M42.8738 54.2688C42.8738 55.5267 41.8042 56.6049 40.5563 56.6049C39.3084 56.6049 38.2388 55.5267 38.2388 54.2688C38.2388 53.011 39.3084 51.9328 40.5563 51.9328C41.8042 51.9328 42.8738 53.011 42.8738 54.2688Z" fill="#443225"/>
<path d="M40.378 54.8978C40.9688 54.8978 41.4476 54.4151 41.4476 53.8196C41.4476 53.2241 40.9688 52.7414 40.378 52.7414C39.7873 52.7414 39.3084 53.2241 39.3084 53.8196C39.3084 54.4151 39.7873 54.8978 40.378 54.8978Z" fill="#82604E"/>
<path d="M12.3006 32.0761C11.231 43.3971 15.9551 54.6283 24.6903 61.906C33.4255 69.094 45.9044 70.8909 56.5114 67.297C57.4919 66.9376 57.0462 65.4101 56.0657 65.6797C45.9935 69.094 35.1191 67.3868 26.473 61.1872C17.4704 54.7181 12.9245 42.9479 13.9942 32.0761C13.9942 30.9979 12.3897 31.0878 12.3006 32.0761Z" fill="#DB6D17"/>
<path d="M81.8256 55.1673C79.1516 53.9993 78.1711 53.8196 76.2993 53.4602C77.6363 56.6049 75.9427 62.4451 71.5751 69.633C72.1991 69.9924 72.7339 70.262 73.3578 70.5315C76.2101 69.1838 78.7059 66.9376 80.1321 64.0624C81.6474 61.3669 82.3604 58.3121 81.8256 55.1673Z" fill="#EA8329"/>
<path d="M81.8257 55.1673C81.7365 55.0775 81.5583 55.0775 81.4691 54.9876C81.6474 57.8628 80.7561 60.6481 79.419 63.2538C77.9037 66.2188 75.4971 68.6447 72.5557 70.1721C72.8231 70.3518 73.0905 70.4417 73.447 70.6214C76.2993 69.2736 78.7951 67.0274 80.2212 64.1523C81.6474 61.3669 82.3605 58.3121 81.8257 55.1673Z" fill="#D36A18"/>
<path d="M77.1906 77.7195C77.2797 77.8992 77.2798 78.1687 77.3689 78.3484C83.6974 79.6063 90.8282 77.0007 95.1067 72.1488C95.0175 71.7894 94.9284 71.43 94.8393 71.1605C90.2934 75.6529 83.5192 78.2586 77.1906 77.7195Z" fill="#D36A18"/>
<path d="M94.8393 71.0706C94.8393 70.891 94.7502 70.7113 94.7502 70.5316C90.1152 75.024 83.1627 77.4499 76.8341 76.5514C76.9232 76.9108 77.1015 77.2702 77.1906 77.7195C83.5192 78.2586 90.2934 75.653 94.8393 71.0706Z" fill="#EA8329"/>
<path d="M76.745 82.8409C76.745 83.1104 76.6558 83.4698 76.6558 83.7394C81.8256 87.6029 89.4021 88.2318 95.285 85.7161C95.3741 85.2668 95.4632 84.8176 95.5524 84.3683C89.5803 86.7942 82.1822 86.2551 76.745 82.8409Z" fill="#D36A18"/>
<path d="M76.9233 81.3134C76.8341 81.8525 76.745 82.3916 76.745 82.9307C82.1822 86.345 89.5804 86.7942 95.5524 84.3683C95.6415 83.7394 95.7307 83.0206 95.8198 82.3018C89.7587 84.4582 82.6279 84.1886 76.9233 81.3134Z" fill="#EA8329"/>
<path d="M74.784 86.345C74.5166 86.7044 74.2492 87.1536 73.9818 87.513C76.8341 93.2634 83.341 97.3066 89.7586 97.7558C90.1152 97.3066 90.4717 96.8573 90.8283 96.4081C84.4997 95.5994 78.2603 91.8258 74.784 86.345Z" fill="#D36A18"/>
<path d="M75.5862 85.1769C75.3188 85.6262 75.0514 85.9856 74.784 86.345C78.2602 91.7359 84.4105 95.5994 90.8282 96.4081C91.2739 95.869 91.6304 95.24 91.987 94.6111C85.5693 93.9822 79.1516 90.3882 75.5862 85.1769Z" fill="#EA8329"/>
<path d="M96.4437 83.9191L120.777 60.3786C120.777 60.3786 118.906 78.4383 112.131 82.9307C105.357 87.4232 96.4437 83.9191 96.4437 83.9191Z" fill="#348456"/>
<path d="M96.4438 83.9191L120.778 60.3786C120.778 60.3786 102.772 61.5466 98.0482 68.1955C93.3241 74.7545 96.4438 83.9191 96.4438 83.9191Z" fill="#327C50"/>
<path d="M119.351 61.7263C119.351 61.7263 99.2069 77.989 96.4437 83.9191C102.416 81.4033 119.351 61.7263 119.351 61.7263Z" fill="#3FB26E"/>
<path d="M97.4242 84.548L73.9818 79.4266C73.9818 79.4266 85.3019 73.4067 90.65 75.5631C95.9089 77.8093 97.4242 84.548 97.4242 84.548Z" fill="#348456"/>
<path d="M97.4242 84.548L73.9818 79.4266C73.9818 79.4266 81.8257 89.6694 87.6194 89.8491C93.324 90.0288 97.4242 84.548 97.4242 84.548Z" fill="#327C50"/>
<path d="M75.3188 79.6962C75.3188 79.6962 92.8784 85.177 97.3351 84.4582C93.5915 81.9424 75.3188 79.6962 75.3188 79.6962Z" fill="#3FB26E"/>
<path d="M100.455 75.2936C94.037 75.2936 88.7781 80.5947 88.7781 87.0638C88.7781 93.5329 94.037 98.834 100.455 98.834C106.872 98.834 112.131 93.5329 112.131 87.0638C112.131 80.5947 106.872 75.2936 100.455 75.2936ZM100.455 98.2949C94.3044 98.2949 89.3129 93.2634 89.3129 87.0638C89.3129 80.8642 94.3044 75.8327 100.455 75.8327C106.605 75.8327 111.597 80.8642 111.597 87.0638C111.597 93.2634 106.605 98.2949 100.455 98.2949Z" fill="#5B9337"/>
<path opacity="0.83" d="M103.037 97.9987C109.025 96.5659 112.726 90.5117 111.305 84.4764C109.883 78.4411 103.877 74.7101 97.8898 76.1429C91.9025 77.5758 88.2011 83.6299 89.6226 89.6652C91.044 95.7005 97.05 99.4315 103.037 97.9987Z" fill="#FCECC5"/>
<path opacity="0.52" d="M100.455 86.8841V76.7311C100.455 76.7311 97.5133 76.3717 96.0872 77.8992L100.455 86.8841Z" fill="#F7C257"/>
<path opacity="0.52" d="M100.276 86.9739L95.2849 78.2586C95.2849 78.2586 92.6109 79.4266 92.076 81.4033L100.276 86.9739Z" fill="#F7C257"/>
<path opacity="0.52" d="M100.187 87.0638L91.5412 82.0322C91.5412 82.0322 89.7585 84.4581 90.3825 86.345L100.187 87.0638Z" fill="#F7C257"/>
<path opacity="0.52" d="M100.187 87.2435H90.1151C90.1151 87.2435 89.7586 90.2085 91.2739 91.6461L100.187 87.2435Z" fill="#F7C257"/>
<path opacity="0.52" d="M100.276 87.4232L91.6304 92.4547C91.6304 92.4547 92.7891 95.1502 94.7501 95.6893L100.276 87.4232Z" fill="#F7C257"/>
<path opacity="0.52" d="M100.455 87.513L95.4633 96.2284C95.4633 96.2284 97.8699 98.0254 99.7417 97.3964L100.455 87.513Z" fill="#F7C257"/>
<path opacity="0.52" d="M100.544 87.513V97.666C100.544 97.666 103.485 98.0254 104.912 96.4979L100.544 87.513Z" fill="#F7C257"/>
<path opacity="0.52" d="M100.722 87.4232L105.714 96.1385C105.714 96.1385 108.388 94.9705 108.923 92.9938L100.722 87.4232Z" fill="#F7C257"/>
<path opacity="0.52" d="M100.811 87.3333L109.457 92.3649C109.457 92.3649 111.24 89.939 110.616 88.0521L100.811 87.3333Z" fill="#F7C257"/>
<path opacity="0.52" d="M100.811 87.1536H110.884C110.884 87.1536 111.24 84.1886 109.725 82.751L100.811 87.1536Z" fill="#F7C257"/>
<path opacity="0.52" d="M100.722 86.9739L109.368 81.9424C109.368 81.9424 108.209 79.2469 106.249 78.7078L100.722 86.9739Z" fill="#F7C257"/>
<path opacity="0.52" d="M100.633 86.8841L105.625 78.1687C105.625 78.1687 103.218 76.3717 101.346 77.0007L100.633 86.8841Z" fill="#F7C257"/>
<path d="M101.435 87.0638C101.435 87.6029 100.99 87.9623 100.544 87.9623C100.009 87.9623 99.6526 87.513 99.6526 87.0638C99.6526 86.5247 100.098 86.1653 100.544 86.1653C100.99 86.1653 101.435 86.6145 101.435 87.0638Z" fill="#FCECC5"/>
<path d="M89.0456 90.0288C83.1627 89.939 78.2603 94.6111 78.1711 100.541C78.082 106.471 82.717 111.413 88.5999 111.503C94.4828 111.593 99.3852 106.92 99.4743 100.99C99.5634 95.0604 94.8393 90.1187 89.0456 90.0288ZM88.5999 110.964C82.9844 110.874 78.5277 106.202 78.6168 100.541C78.7059 94.8807 83.3409 90.3882 88.9564 90.478C94.5719 90.5679 99.0286 95.2401 98.9395 100.901C98.8504 106.561 94.2154 111.053 88.5999 110.964Z" fill="#5B9337"/>
<path opacity="0.83" d="M98.8447 102.194C99.6539 96.5955 95.8079 91.396 90.2543 90.5803C84.7007 89.7646 79.5426 93.6415 78.7333 99.2396C77.9241 104.838 81.7701 110.037 87.3237 110.853C92.8773 111.669 98.0354 107.792 98.8447 102.194Z" fill="#FCECC5"/>
<path opacity="0.52" d="M88.7781 100.541L88.9564 91.2867C88.9564 91.2867 86.2823 90.9273 84.9453 92.275L88.7781 100.541Z" fill="#F7C257"/>
<path opacity="0.52" d="M88.5999 100.631L84.1432 92.5446C84.1432 92.5446 81.6474 93.6227 81.2017 95.3299L88.5999 100.631Z" fill="#F7C257"/>
<path opacity="0.52" d="M88.5108 100.721L80.6669 95.9588C80.6669 95.9588 79.0625 98.1152 79.5081 99.9122L88.5108 100.721Z" fill="#F7C257"/>
<path opacity="0.52" d="M88.5108 100.901L79.3299 100.721C79.3299 100.721 78.9733 103.416 80.3104 104.764L88.5108 100.901Z" fill="#F7C257"/>
<path opacity="0.52" d="M88.5999 100.99L80.5778 105.483C80.5778 105.483 81.6474 107.999 83.3409 108.448L88.5999 100.99Z" fill="#F7C257"/>
<path opacity="0.52" d="M88.689 101.08L83.9648 108.987C83.9648 108.987 86.1041 110.604 87.8868 110.155L88.689 101.08Z" fill="#F7C257"/>
<path opacity="0.52" d="M88.8672 101.17L88.689 110.425C88.689 110.425 91.363 110.784 92.7 109.436L88.8672 101.17Z" fill="#F7C257"/>
<path opacity="0.52" d="M88.9564 101.08L93.4132 109.167C93.4132 109.167 95.9089 108.088 96.3546 106.381L88.9564 101.08Z" fill="#F7C257"/>
<path opacity="0.52" d="M89.0455 100.901L96.8894 105.663C96.8894 105.663 98.4938 103.506 98.0481 101.709L89.0455 100.901Z" fill="#F7C257"/>
<path opacity="0.52" d="M89.1346 100.811L98.3155 100.99C98.3155 100.99 98.6721 98.2949 97.335 96.9472L89.1346 100.811Z" fill="#F7C257"/>
<path opacity="0.52" d="M89.0455 100.631L97.0677 96.1385C97.0677 96.1385 95.998 93.6227 94.3045 93.1735L89.0455 100.631Z" fill="#F7C257"/>
<path opacity="0.52" d="M88.8673 100.541L93.5915 92.6344C93.5915 92.6344 91.4522 91.0171 89.6695 91.4664L88.8673 100.541Z" fill="#F7C257"/>
<path d="M89.6695 100.721C89.6695 101.17 89.3129 101.529 88.8673 101.529C88.4216 101.529 88.0651 101.17 88.0651 100.721C88.0651 100.272 88.4216 99.9122 88.8673 99.9122C89.3129 99.9122 89.6695 100.272 89.6695 100.721Z" fill="#FCECC5"/>
</g>
<defs>
<clipPath id="clip0_36_272">
<rect width="137" height="131" fill="white"/>
</clipPath>
</defs>
</svg>
