<svg width="21" height="19" viewBox="0 0 21 19" fill="none" xmlns="http://www.w3.org/2000/svg">
<path d="M0 0.890625C0 0.39707 0.390104 0 0.875 0H2.53385C3.33594 0 4.04688 0.475 4.37865 1.1875H19.363C20.3219 1.1875 21.0219 2.11523 20.7703 3.05781L19.2755 8.70957C18.9656 9.8748 17.9266 10.6875 16.7417 10.6875H6.22344L6.42031 11.7451C6.50052 12.1645 6.86146 12.4688 7.28073 12.4688H17.7917C18.2766 12.4688 18.6667 12.8658 18.6667 13.3594C18.6667 13.8529 18.2766 14.25 17.7917 14.25H7.28073C6.01927 14.25 4.93646 13.3371 4.70313 12.0791L2.82188 2.02246C2.79635 1.88145 2.67604 1.78125 2.53385 1.78125H0.875C0.390104 1.78125 0 1.38418 0 0.890625ZM4.66667 17.2188C4.66667 16.9848 4.71193 16.7532 4.79988 16.5371C4.88782 16.321 5.01673 16.1246 5.17923 15.9592C5.34173 15.7938 5.53465 15.6626 5.74697 15.5731C5.95929 15.4836 6.18685 15.4375 6.41667 15.4375C6.64648 15.4375 6.87404 15.4836 7.08636 15.5731C7.29868 15.6626 7.4916 15.7938 7.6541 15.9592C7.81661 16.1246 7.94551 16.321 8.03346 16.5371C8.1214 16.7532 8.16667 16.9848 8.16667 17.2188C8.16667 17.4527 8.1214 17.6843 8.03346 17.9004C7.94551 18.1165 7.81661 18.3129 7.6541 18.4783C7.4916 18.6437 7.29868 18.7749 7.08636 18.8644C6.87404 18.9539 6.64648 19 6.41667 19C6.18685 19 5.95929 18.9539 5.74697 18.8644C5.53465 18.7749 5.34173 18.6437 5.17923 18.4783C5.01673 18.3129 4.88782 18.1165 4.79988 17.9004C4.71193 17.6843 4.66667 17.4527 4.66667 17.2188ZM16.9167 15.4375C17.3808 15.4375 17.8259 15.6252 18.1541 15.9592C18.4823 16.2933 18.6667 16.7463 18.6667 17.2188C18.6667 17.6912 18.4823 18.1442 18.1541 18.4783C17.8259 18.8123 17.3808 19 16.9167 19C16.4525 19 16.0074 18.8123 15.6792 18.4783C15.351 18.1442 15.1667 17.6912 15.1667 17.2188C15.1667 16.7463 15.351 16.2933 15.6792 15.9592C16.0074 15.6252 16.4525 15.4375 16.9167 15.4375Z" fill="white"/>
</svg>
