<svg width="26" height="26" viewBox="0 0 26 26" fill="none" xmlns="http://www.w3.org/2000/svg">
<path d="M9.67383 3.49375L11.441 6.5H11.375H7.71875C6.59648 6.5 5.6875 5.59102 5.6875 4.46875C5.6875 3.34648 6.59648 2.4375 7.71875 2.4375H7.83047C8.58711 2.4375 9.29297 2.83867 9.67383 3.49375ZM3.25 4.46875C3.25 5.2 3.42773 5.89062 3.7375 6.5H1.625C0.726172 6.5 0 7.22617 0 8.125V11.375C0 12.2738 0.726172 13 1.625 13H24.375C25.2738 13 26 12.2738 26 11.375V8.125C26 7.22617 25.2738 6.5 24.375 6.5H22.2625C22.5723 5.89062 22.75 5.2 22.75 4.46875C22.75 2.00078 20.7492 0 18.2812 0H18.1695C16.5496 0 15.0465 0.858203 14.2238 2.25469L13 4.3418L11.7762 2.25977C10.9535 0.858203 9.45039 0 7.83047 0H7.71875C5.25078 0 3.25 2.00078 3.25 4.46875ZM20.3125 4.46875C20.3125 5.59102 19.4035 6.5 18.2812 6.5H14.625H14.559L16.3262 3.49375C16.7121 2.83867 17.4129 2.4375 18.1695 2.4375H18.2812C19.4035 2.4375 20.3125 3.34648 20.3125 4.46875ZM1.625 14.625V23.5625C1.625 24.9082 2.7168 26 4.0625 26H11.375V14.625H1.625ZM14.625 26H21.9375C23.2832 26 24.375 24.9082 24.375 23.5625V14.625H14.625V26Z" fill="white"/>
</svg>
