<svg width="24" height="22" viewBox="0 0 24 22" fill="none" xmlns="http://www.w3.org/2000/svg">
<g clip-path="url(#clip0_36_14)">
<path d="M13.2042 0.773438C12.9833 0.300781 12.5167 0 12.0042 0C11.4917 0 11.0292 0.300781 10.8042 0.773438L8.125 6.4582L2.14167 7.36914C1.64167 7.44649 1.225 7.80742 1.07083 8.30156C0.916667 8.7957 1.04167 9.34141 1.4 9.70664L5.74167 14.1367L4.71667 20.3973C4.63333 20.9129 4.84167 21.4371 5.25417 21.7422C5.66667 22.0473 6.2125 22.0859 6.6625 21.841L12.0083 18.8977L17.3542 21.841C17.8042 22.0859 18.35 22.0516 18.7625 21.7422C19.175 21.4328 19.3833 20.9129 19.3 20.3973L18.2708 14.1367L22.6125 9.70664C22.9708 9.34141 23.1 8.7957 22.9417 8.30156C22.7833 7.80742 22.3708 7.44649 21.8708 7.36914L15.8833 6.4582L13.2042 0.773438Z" fill="white"/>
</g>
<defs>
<clipPath id="clip0_36_14">
<rect width="24" height="22" fill="white"/>
</clipPath>
</defs>
</svg>
