<svg width="20" height="27" viewBox="0 0 20 27" fill="none" xmlns="http://www.w3.org/2000/svg">
<g clip-path="url(#clip0_36_32)">
<path d="M10 0C7.82292 0 5.96875 1.40801 5.28646 3.375H3.33333C1.49479 3.375 0 4.88848 0 6.75V23.625C0 25.4865 1.49479 27 3.33333 27H16.6667C18.5052 27 20 25.4865 20 23.625V6.75C20 4.88848 18.5052 3.375 16.6667 3.375H14.7135C14.0312 1.40801 12.1771 0 10 0ZM10 3.375C10.442 3.375 10.8659 3.55279 11.1785 3.86926C11.4911 4.18572 11.6667 4.61495 11.6667 5.0625C11.6667 5.51005 11.4911 5.93928 11.1785 6.25574C10.8659 6.57221 10.442 6.75 10 6.75C9.55797 6.75 9.13405 6.57221 8.82149 6.25574C8.50893 5.93928 8.33333 5.51005 8.33333 5.0625C8.33333 4.61495 8.50893 4.18572 8.82149 3.86926C9.13405 3.55279 9.55797 3.375 10 3.375ZM5.83333 10.125H14.1667C14.625 10.125 15 10.5047 15 10.9688C15 11.4328 14.625 11.8125 14.1667 11.8125H5.83333C5.375 11.8125 5 11.4328 5 10.9688C5 10.5047 5.375 10.125 5.83333 10.125Z" fill="white"/>
</g>
<defs>
<clipPath id="clip0_36_32">
<rect width="20" height="27" fill="white"/>
</clipPath>
</defs>
</svg>
