<svg width="23" height="19" viewBox="0 0 23 19" fill="none" xmlns="http://www.w3.org/2000/svg">
<g clip-path="url(#clip0_36_26)">
<path d="M1.39427 0.189161C1.02052 -0.115136 0.477866 -0.0446278 0.183178 0.34131C-0.111509 0.727247 -0.0432282 1.2876 0.330522 1.5919L21.6055 18.8106C21.9793 19.1149 22.5219 19.0444 22.8166 18.6585C23.1113 18.2726 23.043 17.7122 22.6693 17.4079L18.8886 14.3501C20.3118 12.8435 21.2749 11.155 21.7601 9.95635C21.8786 9.66318 21.8786 9.33662 21.7601 9.04346C21.2246 7.71865 20.0997 5.78897 18.4179 4.17842C16.7288 2.55303 14.4036 1.1874 11.4999 1.1874C9.04896 1.1874 7.00771 2.16338 5.41568 3.44365L1.39427 0.189161ZM8.01755 5.54775C8.93396 4.68311 10.1594 4.15615 11.4999 4.15615C14.3569 4.15615 16.6749 6.54971 16.6749 9.4999C16.6749 10.4239 16.4485 11.2923 16.0496 12.0493L14.6624 10.9286C14.9643 10.2124 15.0433 9.39229 14.8349 8.57959C14.436 7.03955 13.1171 6.0042 11.6508 5.94111C11.4424 5.93369 11.3202 6.16748 11.3849 6.37529C11.4604 6.61279 11.5035 6.86514 11.5035 7.12861C11.5035 7.50713 11.4172 7.86338 11.2663 8.17881L8.02115 5.55147L8.01755 5.54775ZM13.4046 14.4688C12.8152 14.7101 12.1719 14.8437 11.4999 14.8437C8.64287 14.8437 6.3249 12.4501 6.3249 9.4999C6.3249 9.24385 6.34286 8.99522 6.37521 8.75029L2.9863 5.99307C2.16693 7.09522 1.58115 8.19365 1.23974 9.04346C1.12115 9.33662 1.12115 9.66318 1.23974 9.95635C1.77521 11.2812 2.90005 13.2108 4.58193 14.8214C6.27099 16.4468 8.59615 17.8124 11.4999 17.8124C13.2177 17.8124 14.7307 17.3337 16.0352 16.6063L13.4046 14.4688Z" fill="white"/>
</g>
<defs>
<clipPath id="clip0_36_26">
<rect width="23" height="19" fill="white"/>
</clipPath>
</defs>
</svg>
