<svg width="24" height="22" viewBox="0 0 24 22" fill="none" xmlns="http://www.w3.org/2000/svg">
<path d="M8.25 2.56667V4.4H15.75V2.56667C15.75 2.365 15.5813 2.2 15.375 2.2H8.625C8.41875 2.2 8.25 2.365 8.25 2.56667ZM6 4.4V2.56667C6 1.15042 7.17656 0 8.625 0H15.375C16.8234 0 18 1.15042 18 2.56667V4.4V5.86667V22H6V5.86667V4.4ZM3 4.4H4.5V22H3C1.34531 22 0 20.6846 0 19.0667V7.33333C0 5.71542 1.34531 4.4 3 4.4ZM21 22H19.5V4.4H21C22.6547 4.4 24 5.71542 24 7.33333V19.0667C24 20.6846 22.6547 22 21 22Z" fill="white"/>
</svg>
