<svg width="22" height="22" viewBox="0 0 22 22" fill="none" xmlns="http://www.w3.org/2000/svg">
<path d="M9.56914 1.00031C9.78398 1.73983 9.37148 2.5231 8.64531 2.7419C5.23359 3.77897 2.75 6.99522 2.75 10.7978C2.75 15.4362 6.44531 19.1995 11 19.1995C15.5547 19.1995 19.25 15.4362 19.25 10.7978C19.25 6.99522 16.7664 3.77897 13.359 2.7419C12.6328 2.5231 12.216 1.73983 12.4352 1.00031C12.6543 0.260791 13.4191 -0.163666 14.1453 0.059502C18.6871 1.43789 22 5.72185 22 10.7978C22 16.9853 17.0758 22 11 22C4.92422 22 0 16.9853 0 10.7978C0 5.72185 3.31289 1.43789 7.85898 0.059502C8.58516 -0.15929 9.3543 0.260791 9.56914 1.00031Z" fill="white"/>
</svg>
