<svg width="16" height="14" viewBox="0 0 16 14" fill="none" xmlns="http://www.w3.org/2000/svg">
<g clip-path="url(#clip0_58_590)">
<path d="M8.80278 0.492188C8.65555 0.191406 8.34444 0 8.00278 0C7.66111 0 7.35278 0.191406 7.20278 0.492188L5.41667 4.10977L1.42778 4.68945C1.09444 4.73867 0.816667 4.96836 0.713889 5.28281C0.611111 5.59727 0.694444 5.94453 0.933333 6.17695L3.82778 8.99609L3.14444 12.9801C3.08889 13.3082 3.22778 13.6418 3.50278 13.8359C3.77778 14.0301 4.14167 14.0547 4.44167 13.8988L8.00556 12.0258L11.5694 13.8988C11.8694 14.0547 12.2333 14.0328 12.5083 13.8359C12.7833 13.6391 12.9222 13.3082 12.8667 12.9801L12.1806 8.99609L15.075 6.17695C15.3139 5.94453 15.4 5.59727 15.2944 5.28281C15.1889 4.96836 14.9139 4.73867 14.5806 4.68945L10.5889 4.10977L8.80278 0.492188Z" fill="#2CB67D"/>
</g>
<defs>
<clipPath id="clip0_58_590">
<rect width="16" height="14" fill="white"/>
</clipPath>
</defs>
</svg>
